0
SECTION
2
HEADER
0
ENDSEC
0
SECTION
2
ENTITIES
0
LINE
8
NFC_COIL
10
-7.2750
20
19.7750
11
7.2750
21
19.7750
0
LINE
8
NFC_COIL
10
7.2750
20
19.7750
11
7.6675
21
19.7654
0
LINE
8
NFC_COIL
10
7.6675
20
19.7654
11
8.0591
21
19.7365
0
LINE
8
NFC_COIL
10
8.0591
20
19.7365
11
8.4488
21
19.6884
0
LINE
8
NFC_COIL
10
8.4488
20
19.6884
11
8.8357
21
19.6213
0
LINE
8
NFC_COIL
10
8.8357
20
19.6213
11
9.2188
21
19.5353
0
LINE
8
NFC_COIL
10
9.2188
20
19.5353
11
9.5973
21
19.4305
0
LINE
8
NFC_COIL
10
9.5973
20
19.4305
11
9.9701
21
19.3074
0
LINE
8
NFC_COIL
10
9.9701
20
19.3074
11
10.3365
21
19.1660
0
LINE
8
NFC_COIL
10
10.3365
20
19.1660
11
10.6954
21
19.0069
0
LINE
8
NFC_COIL
10
10.6954
20
19.0069
11
11.0462
21
18.8304
0
LINE
8
NFC_COIL
10
11.0462
20
18.8304
11
11.3878
21
18.6368
0
LINE
8
NFC_COIL
10
11.3878
20
18.6368
11
11.7196
21
18.4268
0
LINE
8
NFC_COIL
10
11.7196
20
18.4268
11
12.0406
21
18.2007
0
LINE
8
NFC_COIL
10
12.0406
20
18.2007
11
12.3501
21
17.9591
0
LINE
8
NFC_COIL
10
12.3501
20
17.9591
11
12.6475
21
17.7026
0
LINE
8
NFC_COIL
10
12.6475
20
17.7026
11
12.9319
21
17.4319
0
LINE
8
NFC_COIL
10
12.9319
20
17.4319
11
13.2026
21
17.1475
0
LINE
8
NFC_COIL
10
13.2026
20
17.1475
11
13.4591
21
16.8501
0
LINE
8
NFC_COIL
10
13.4591
20
16.8501
11
13.7007
21
16.5406
0
LINE
8
NFC_COIL
10
13.7007
20
16.5406
11
13.9268
21
16.2196
0
LINE
8
NFC_COIL
10
13.9268
20
16.2196
11
14.1368
21
15.8878
0
LINE
8
NFC_COIL
10
14.1368
20
15.8878
11
14.3304
21
15.5462
0
LINE
8
NFC_COIL
10
14.3304
20
15.5462
11
14.5069
21
15.1954
0
LINE
8
NFC_COIL
10
14.5069
20
15.1954
11
14.6660
21
14.8365
0
LINE
8
NFC_COIL
10
14.6660
20
14.8365
11
14.8074
21
14.4701
0
LINE
8
NFC_COIL
10
14.8074
20
14.4701
11
14.9305
21
14.0973
0
LINE
8
NFC_COIL
10
14.9305
20
14.0973
11
15.0353
21
13.7188
0
LINE
8
NFC_COIL
10
15.0353
20
13.7188
11
15.1213
21
13.3357
0
LINE
8
NFC_COIL
10
15.1213
20
13.3357
11
15.1884
21
12.9488
0
LINE
8
NFC_COIL
10
15.1884
20
12.9488
11
15.2365
21
12.5591
0
LINE
8
NFC_COIL
10
15.2365
20
12.5591
11
15.2654
21
12.1675
0
LINE
8
NFC_COIL
10
15.2654
20
12.1675
11
15.2750
21
11.7750
0
LINE
8
NFC_COIL
10
15.2750
20
11.7750
11
15.2750
21
-11.7750
0
LINE
8
NFC_COIL
10
15.2750
20
-11.7750
11
15.2654
21
-12.1675
0
LINE
8
NFC_COIL
10
15.2654
20
-12.1675
11
15.2365
21
-12.5591
0
LINE
8
NFC_COIL
10
15.2365
20
-12.5591
11
15.1884
21
-12.9488
0
LINE
8
NFC_COIL
10
15.1884
20
-12.9488
11
15.1213
21
-13.3357
0
LINE
8
NFC_COIL
10
15.1213
20
-13.3357
11
15.0353
21
-13.7188
0
LINE
8
NFC_COIL
10
15.0353
20
-13.7188
11
14.9305
21
-14.0973
0
LINE
8
NFC_COIL
10
14.9305
20
-14.0973
11
14.8074
21
-14.4701
0
LINE
8
NFC_COIL
10
14.8074
20
-14.4701
11
14.6660
21
-14.8365
0
LINE
8
NFC_COIL
10
14.6660
20
-14.8365
11
14.5069
21
-15.1954
0
LINE
8
NFC_COIL
10
14.5069
20
-15.1954
11
14.3304
21
-15.5462
0
LINE
8
NFC_COIL
10
14.3304
20
-15.5462
11
14.1368
21
-15.8878
0
LINE
8
NFC_COIL
10
14.1368
20
-15.8878
11
13.9268
21
-16.2196
0
LINE
8
NFC_COIL
10
13.9268
20
-16.2196
11
13.7007
21
-16.5406
0
LINE
8
NFC_COIL
10
13.7007
20
-16.5406
11
13.4591
21
-16.8501
0
LINE
8
NFC_COIL
10
13.4591
20
-16.8501
11
13.2026
21
-17.1475
0
LINE
8
NFC_COIL
10
13.2026
20
-17.1475
11
12.9319
21
-17.4319
0
LINE
8
NFC_COIL
10
12.9319
20
-17.4319
11
12.6475
21
-17.7026
0
LINE
8
NFC_COIL
10
12.6475
20
-17.7026
11
12.3501
21
-17.9591
0
LINE
8
NFC_COIL
10
12.3501
20
-17.9591
11
12.0406
21
-18.2007
0
LINE
8
NFC_COIL
10
12.0406
20
-18.2007
11
11.7196
21
-18.4268
0
LINE
8
NFC_COIL
10
11.7196
20
-18.4268
11
11.3878
21
-18.6368
0
LINE
8
NFC_COIL
10
11.3878
20
-18.6368
11
11.0462
21
-18.8304
0
LINE
8
NFC_COIL
10
11.0462
20
-18.8304
11
10.6954
21
-19.0069
0
LINE
8
NFC_COIL
10
10.6954
20
-19.0069
11
10.3365
21
-19.1660
0
LINE
8
NFC_COIL
10
10.3365
20
-19.1660
11
9.9701
21
-19.3074
0
LINE
8
NFC_COIL
10
9.9701
20
-19.3074
11
9.5973
21
-19.4305
0
LINE
8
NFC_COIL
10
9.5973
20
-19.4305
11
9.2188
21
-19.5353
0
LINE
8
NFC_COIL
10
9.2188
20
-19.5353
11
8.8357
21
-19.6213
0
LINE
8
NFC_COIL
10
8.8357
20
-19.6213
11
8.4488
21
-19.6884
0
LINE
8
NFC_COIL
10
8.4488
20
-19.6884
11
8.0591
21
-19.7365
0
LINE
8
NFC_COIL
10
8.0591
20
-19.7365
11
7.6675
21
-19.7654
0
LINE
8
NFC_COIL
10
7.6675
20
-19.7654
11
7.2750
21
-19.7750
0
LINE
8
NFC_COIL
10
7.2750
20
-19.7750
11
-7.2750
21
-19.7750
0
LINE
8
NFC_COIL
10
-7.2750
20
-19.7750
11
-7.6675
21
-19.7654
0
LINE
8
NFC_COIL
10
-7.6675
20
-19.7654
11
-8.0591
21
-19.7365
0
LINE
8
NFC_COIL
10
-8.0591
20
-19.7365
11
-8.4488
21
-19.6884
0
LINE
8
NFC_COIL
10
-8.4488
20
-19.6884
11
-8.8357
21
-19.6213
0
LINE
8
NFC_COIL
10
-8.8357
20
-19.6213
11
-9.2188
21
-19.5353
0
LINE
8
NFC_COIL
10
-9.2188
20
-19.5353
11
-9.5973
21
-19.4305
0
LINE
8
NFC_COIL
10
-9.5973
20
-19.4305
11
-9.9701
21
-19.3074
0
LINE
8
NFC_COIL
10
-9.9701
20
-19.3074
11
-10.3365
21
-19.1660
0
LINE
8
NFC_COIL
10
-10.3365
20
-19.1660
11
-10.6954
21
-19.0069
0
LINE
8
NFC_COIL
10
-10.6954
20
-19.0069
11
-11.0462
21
-18.8304
0
LINE
8
NFC_COIL
10
-11.0462
20
-18.8304
11
-11.3878
21
-18.6368
0
LINE
8
NFC_COIL
10
-11.3878
20
-18.6368
11
-11.7196
21
-18.4268
0
LINE
8
NFC_COIL
10
-11.7196
20
-18.4268
11
-12.0406
21
-18.2007
0
LINE
8
NFC_COIL
10
-12.0406
20
-18.2007
11
-12.3501
21
-17.9591
0
LINE
8
NFC_COIL
10
-12.3501
20
-17.9591
11
-12.6475
21
-17.7026
0
LINE
8
NFC_COIL
10
-12.6475
20
-17.7026
11
-12.9319
21
-17.4319
0
LINE
8
NFC_COIL
10
-12.9319
20
-17.4319
11
-13.2026
21
-17.1475
0
LINE
8
NFC_COIL
10
-13.2026
20
-17.1475
11
-13.4591
21
-16.8501
0
LINE
8
NFC_COIL
10
-13.4591
20
-16.8501
11
-13.7007
21
-16.5406
0
LINE
8
NFC_COIL
10
-13.7007
20
-16.5406
11
-13.9268
21
-16.2196
0
LINE
8
NFC_COIL
10
-13.9268
20
-16.2196
11
-14.1368
21
-15.8878
0
LINE
8
NFC_COIL
10
-14.1368
20
-15.8878
11
-14.3304
21
-15.5462
0
LINE
8
NFC_COIL
10
-14.3304
20
-15.5462
11
-14.5069
21
-15.1954
0
LINE
8
NFC_COIL
10
-14.5069
20
-15.1954
11
-14.6660
21
-14.8365
0
LINE
8
NFC_COIL
10
-14.6660
20
-14.8365
11
-14.8074
21
-14.4701
0
LINE
8
NFC_COIL
10
-14.8074
20
-14.4701
11
-14.9305
21
-14.0973
0
LINE
8
NFC_COIL
10
-14.9305
20
-14.0973
11
-15.0353
21
-13.7188
0
LINE
8
NFC_COIL
10
-15.0353
20
-13.7188
11
-15.1213
21
-13.3357
0
LINE
8
NFC_COIL
10
-15.1213
20
-13.3357
11
-15.1884
21
-12.9488
0
LINE
8
NFC_COIL
10
-15.1884
20
-12.9488
11
-15.2365
21
-12.5591
0
LINE
8
NFC_COIL
10
-15.2365
20
-12.5591
11
-15.2654
21
-12.1675
0
LINE
8
NFC_COIL
10
-15.2654
20
-12.1675
11
-15.2750
21
-11.7750
0
LINE
8
NFC_COIL
10
-15.2750
20
-11.7750
11
-15.2750
21
10.6750
0
LINE
8
NFC_COIL
10
-15.2750
20
10.6750
11
-15.2654
21
11.0675
0
LINE
8
NFC_COIL
10
-15.2654
20
11.0675
11
-15.2365
21
11.4591
0
LINE
8
NFC_COIL
10
-15.2365
20
11.4591
11
-15.1884
21
11.8488
0
LINE
8
NFC_COIL
10
-15.1884
20
11.8488
11
-15.1213
21
12.2357
0
LINE
8
NFC_COIL
10
-15.1213
20
12.2357
11
-15.0353
21
12.6188
0
LINE
8
NFC_COIL
10
-15.0353
20
12.6188
11
-14.9305
21
12.9973
0
LINE
8
NFC_COIL
10
-14.9305
20
12.9973
11
-14.8074
21
13.3701
0
LINE
8
NFC_COIL
10
-14.8074
20
13.3701
11
-14.6660
21
13.7365
0
LINE
8
NFC_COIL
10
-14.6660
20
13.7365
11
-14.5069
21
14.0954
0
LINE
8
NFC_COIL
10
-14.5069
20
14.0954
11
-14.3304
21
14.4462
0
LINE
8
NFC_COIL
10
-14.3304
20
14.4462
11
-14.1368
21
14.7878
0
LINE
8
NFC_COIL
10
-14.1368
20
14.7878
11
-13.9268
21
15.1196
0
LINE
8
NFC_COIL
10
-13.9268
20
15.1196
11
-13.7007
21
15.4406
0
LINE
8
NFC_COIL
10
-13.7007
20
15.4406
11
-13.4591
21
15.7501
0
LINE
8
NFC_COIL
10
-13.4591
20
15.7501
11
-13.2026
21
16.0475
0
LINE
8
NFC_COIL
10
-13.2026
20
16.0475
11
-12.9319
21
16.3319
0
LINE
8
NFC_COIL
10
-12.9319
20
16.3319
11
-12.6475
21
16.6026
0
LINE
8
NFC_COIL
10
-12.6475
20
16.6026
11
-12.3501
21
16.8591
0
LINE
8
NFC_COIL
10
-12.3501
20
16.8591
11
-12.0406
21
17.1007
0
LINE
8
NFC_COIL
10
-12.0406
20
17.1007
11
-11.7196
21
17.3268
0
LINE
8
NFC_COIL
10
-11.7196
20
17.3268
11
-11.3878
21
17.5368
0
LINE
8
NFC_COIL
10
-11.3878
20
17.5368
11
-11.0462
21
17.7304
0
LINE
8
NFC_COIL
10
-11.0462
20
17.7304
11
-10.6954
21
17.9069
0
LINE
8
NFC_COIL
10
-10.6954
20
17.9069
11
-10.3365
21
18.0660
0
LINE
8
NFC_COIL
10
-10.3365
20
18.0660
11
-9.9701
21
18.2074
0
LINE
8
NFC_COIL
10
-9.9701
20
18.2074
11
-9.5973
21
18.3305
0
LINE
8
NFC_COIL
10
-9.5973
20
18.3305
11
-9.2188
21
18.4353
0
LINE
8
NFC_COIL
10
-9.2188
20
18.4353
11
-8.8357
21
18.5213
0
LINE
8
NFC_COIL
10
-8.8357
20
18.5213
11
-8.4488
21
18.5884
0
LINE
8
NFC_COIL
10
-8.4488
20
18.5884
11
-8.0591
21
18.6365
0
LINE
8
NFC_COIL
10
-8.0591
20
18.6365
11
-7.6675
21
18.6654
0
LINE
8
NFC_COIL
10
-7.6675
20
18.6654
11
-7.2750
21
18.6750
0
LINE
8
NFC_COIL
10
-7.2750
20
18.6750
11
7.2750
21
18.6750
0
LINE
8
NFC_COIL
10
7.2750
20
18.6750
11
7.6136
21
18.6667
0
LINE
8
NFC_COIL
10
7.6136
20
18.6667
11
7.9513
21
18.6418
0
LINE
8
NFC_COIL
10
7.9513
20
18.6418
11
8.2874
21
18.6003
0
LINE
8
NFC_COIL
10
8.2874
20
18.6003
11
8.6211
21
18.5424
0
LINE
8
NFC_COIL
10
8.6211
20
18.5424
11
8.9516
21
18.4682
0
LINE
8
NFC_COIL
10
8.9516
20
18.4682
11
9.2780
21
18.3779
0
LINE
8
NFC_COIL
10
9.2780
20
18.3779
11
9.5995
21
18.2717
0
LINE
8
NFC_COIL
10
9.5995
20
18.2717
11
9.9155
21
18.1498
0
LINE
8
NFC_COIL
10
9.9155
20
18.1498
11
10.2251
21
18.0125
0
LINE
8
NFC_COIL
10
10.2251
20
18.0125
11
10.5276
21
17.8603
0
LINE
8
NFC_COIL
10
10.5276
20
17.8603
11
10.8223
21
17.6933
0
LINE
8
NFC_COIL
10
10.8223
20
17.6933
11
11.1084
21
17.5121
0
LINE
8
NFC_COIL
10
11.1084
20
17.5121
11
11.3853
21
17.3171
0
LINE
8
NFC_COIL
10
11.3853
20
17.3171
11
11.6523
21
17.1088
0
LINE
8
NFC_COIL
10
11.6523
20
17.1088
11
11.9088
21
16.8876
0
LINE
8
NFC_COIL
10
11.9088
20
16.8876
11
12.1540
21
16.6540
0
LINE
8
NFC_COIL
10
12.1540
20
16.6540
11
12.3876
21
16.4088
0
LINE
8
NFC_COIL
10
12.3876
20
16.4088
11
12.6088
21
16.1523
0
LINE
8
NFC_COIL
10
12.6088
20
16.1523
11
12.8171
21
15.8853
0
LINE
8
NFC_COIL
10
12.8171
20
15.8853
11
13.0121
21
15.6084
0
LINE
8
NFC_COIL
10
13.0121
20
15.6084
11
13.1933
21
15.3223
0
LINE
8
NFC_COIL
10
13.1933
20
15.3223
11
13.3603
21
15.0276
0
LINE
8
NFC_COIL
10
13.3603
20
15.0276
11
13.5125
21
14.7251
0
LINE
8
NFC_COIL
10
13.5125
20
14.7251
11
13.6498
21
14.4155
0
LINE
8
NFC_COIL
10
13.6498
20
14.4155
11
13.7717
21
14.0995
0
LINE
8
NFC_COIL
10
13.7717
20
14.0995
11
13.8779
21
13.7780
0
LINE
8
NFC_COIL
10
13.8779
20
13.7780
11
13.9682
21
13.4516
0
LINE
8
NFC_COIL
10
13.9682
20
13.4516
11
14.0424
21
13.1211
0
LINE
8
NFC_COIL
10
14.0424
20
13.1211
11
14.1003
21
12.7874
0
LINE
8
NFC_COIL
10
14.1003
20
12.7874
11
14.1418
21
12.4513
0
LINE
8
NFC_COIL
10
14.1418
20
12.4513
11
14.1667
21
12.1136
0
LINE
8
NFC_COIL
10
14.1667
20
12.1136
11
14.1750
21
11.7750
0
LINE
8
NFC_COIL
10
14.1750
20
11.7750
11
14.1750
21
-11.7750
0
LINE
8
NFC_COIL
10
14.1750
20
-11.7750
11
14.1667
21
-12.1136
0
LINE
8
NFC_COIL
10
14.1667
20
-12.1136
11
14.1418
21
-12.4513
0
LINE
8
NFC_COIL
10
14.1418
20
-12.4513
11
14.1003
21
-12.7874
0
LINE
8
NFC_COIL
10
14.1003
20
-12.7874
11
14.0424
21
-13.1211
0
LINE
8
NFC_COIL
10
14.0424
20
-13.1211
11
13.9682
21
-13.4516
0
LINE
8
NFC_COIL
10
13.9682
20
-13.4516
11
13.8779
21
-13.7780
0
LINE
8
NFC_COIL
10
13.8779
20
-13.7780
11
13.7717
21
-14.0995
0
LINE
8
NFC_COIL
10
13.7717
20
-14.0995
11
13.6498
21
-14.4155
0
LINE
8
NFC_COIL
10
13.6498
20
-14.4155
11
13.5125
21
-14.7251
0
LINE
8
NFC_COIL
10
13.5125
20
-14.7251
11
13.3603
21
-15.0276
0
LINE
8
NFC_COIL
10
13.3603
20
-15.0276
11
13.1933
21
-15.3223
0
LINE
8
NFC_COIL
10
13.1933
20
-15.3223
11
13.0121
21
-15.6084
0
LINE
8
NFC_COIL
10
13.0121
20
-15.6084
11
12.8171
21
-15.8853
0
LINE
8
NFC_COIL
10
12.8171
20
-15.8853
11
12.6088
21
-16.1523
0
LINE
8
NFC_COIL
10
12.6088
20
-16.1523
11
12.3876
21
-16.4088
0
LINE
8
NFC_COIL
10
12.3876
20
-16.4088
11
12.1540
21
-16.6540
0
LINE
8
NFC_COIL
10
12.1540
20
-16.6540
11
11.9088
21
-16.8876
0
LINE
8
NFC_COIL
10
11.9088
20
-16.8876
11
11.6523
21
-17.1088
0
LINE
8
NFC_COIL
10
11.6523
20
-17.1088
11
11.3853
21
-17.3171
0
LINE
8
NFC_COIL
10
11.3853
20
-17.3171
11
11.1084
21
-17.5121
0
LINE
8
NFC_COIL
10
11.1084
20
-17.5121
11
10.8223
21
-17.6933
0
LINE
8
NFC_COIL
10
10.8223
20
-17.6933
11
10.5276
21
-17.8603
0
LINE
8
NFC_COIL
10
10.5276
20
-17.8603
11
10.2251
21
-18.0125
0
LINE
8
NFC_COIL
10
10.2251
20
-18.0125
11
9.9155
21
-18.1498
0
LINE
8
NFC_COIL
10
9.9155
20
-18.1498
11
9.5995
21
-18.2717
0
LINE
8
NFC_COIL
10
9.5995
20
-18.2717
11
9.2780
21
-18.3779
0
LINE
8
NFC_COIL
10
9.2780
20
-18.3779
11
8.9516
21
-18.4682
0
LINE
8
NFC_COIL
10
8.9516
20
-18.4682
11
8.6211
21
-18.5424
0
LINE
8
NFC_COIL
10
8.6211
20
-18.5424
11
8.2874
21
-18.6003
0
LINE
8
NFC_COIL
10
8.2874
20
-18.6003
11
7.9513
21
-18.6418
0
LINE
8
NFC_COIL
10
7.9513
20
-18.6418
11
7.6136
21
-18.6667
0
LINE
8
NFC_COIL
10
7.6136
20
-18.6667
11
7.2750
21
-18.6750
0
LINE
8
NFC_COIL
10
7.2750
20
-18.6750
11
-7.2750
21
-18.6750
0
LINE
8
NFC_COIL
10
-7.2750
20
-18.6750
11
-7.6136
21
-18.6667
0
LINE
8
NFC_COIL
10
-7.6136
20
-18.6667
11
-7.9513
21
-18.6418
0
LINE
8
NFC_COIL
10
-7.9513
20
-18.6418
11
-8.2874
21
-18.6003
0
LINE
8
NFC_COIL
10
-8.2874
20
-18.6003
11
-8.6211
21
-18.5424
0
LINE
8
NFC_COIL
10
-8.6211
20
-18.5424
11
-8.9516
21
-18.4682
0
LINE
8
NFC_COIL
10
-8.9516
20
-18.4682
11
-9.2780
21
-18.3779
0
LINE
8
NFC_COIL
10
-9.2780
20
-18.3779
11
-9.5995
21
-18.2717
0
LINE
8
NFC_COIL
10
-9.5995
20
-18.2717
11
-9.9155
21
-18.1498
0
LINE
8
NFC_COIL
10
-9.9155
20
-18.1498
11
-10.2251
21
-18.0125
0
LINE
8
NFC_COIL
10
-10.2251
20
-18.0125
11
-10.5276
21
-17.8603
0
LINE
8
NFC_COIL
10
-10.5276
20
-17.8603
11
-10.8223
21
-17.6933
0
LINE
8
NFC_COIL
10
-10.8223
20
-17.6933
11
-11.1084
21
-17.5121
0
LINE
8
NFC_COIL
10
-11.1084
20
-17.5121
11
-11.3853
21
-17.3171
0
LINE
8
NFC_COIL
10
-11.3853
20
-17.3171
11
-11.6523
21
-17.1088
0
LINE
8
NFC_COIL
10
-11.6523
20
-17.1088
11
-11.9088
21
-16.8876
0
LINE
8
NFC_COIL
10
-11.9088
20
-16.8876
11
-12.1540
21
-16.6540
0
LINE
8
NFC_COIL
10
-12.1540
20
-16.6540
11
-12.3876
21
-16.4088
0
LINE
8
NFC_COIL
10
-12.3876
20
-16.4088
11
-12.6088
21
-16.1523
0
LINE
8
NFC_COIL
10
-12.6088
20
-16.1523
11
-12.8171
21
-15.8853
0
LINE
8
NFC_COIL
10
-12.8171
20
-15.8853
11
-13.0121
21
-15.6084
0
LINE
8
NFC_COIL
10
-13.0121
20
-15.6084
11
-13.1933
21
-15.3223
0
LINE
8
NFC_COIL
10
-13.1933
20
-15.3223
11
-13.3603
21
-15.0276
0
LINE
8
NFC_COIL
10
-13.3603
20
-15.0276
11
-13.5125
21
-14.7251
0
LINE
8
NFC_COIL
10
-13.5125
20
-14.7251
11
-13.6498
21
-14.4155
0
LINE
8
NFC_COIL
10
-13.6498
20
-14.4155
11
-13.7717
21
-14.0995
0
LINE
8
NFC_COIL
10
-13.7717
20
-14.0995
11
-13.8779
21
-13.7780
0
LINE
8
NFC_COIL
10
-13.8779
20
-13.7780
11
-13.9682
21
-13.4516
0
LINE
8
NFC_COIL
10
-13.9682
20
-13.4516
11
-14.0424
21
-13.1211
0
LINE
8
NFC_COIL
10
-14.0424
20
-13.1211
11
-14.1003
21
-12.7874
0
LINE
8
NFC_COIL
10
-14.1003
20
-12.7874
11
-14.1418
21
-12.4513
0
LINE
8
NFC_COIL
10
-14.1418
20
-12.4513
11
-14.1667
21
-12.1136
0
LINE
8
NFC_COIL
10
-14.1667
20
-12.1136
11
-14.1750
21
-11.7750
0
LINE
8
NFC_COIL
10
-14.1750
20
-11.7750
11
-14.1750
21
10.6750
0
LINE
8
NFC_COIL
10
-14.1750
20
10.6750
11
-14.1667
21
11.0136
0
LINE
8
NFC_COIL
10
-14.1667
20
11.0136
11
-14.1418
21
11.3513
0
LINE
8
NFC_COIL
10
-14.1418
20
11.3513
11
-14.1003
21
11.6874
0
LINE
8
NFC_COIL
10
-14.1003
20
11.6874
11
-14.0424
21
12.0211
0
LINE
8
NFC_COIL
10
-14.0424
20
12.0211
11
-13.9682
21
12.3516
0
LINE
8
NFC_COIL
10
-13.9682
20
12.3516
11
-13.8779
21
12.6780
0
LINE
8
NFC_COIL
10
-13.8779
20
12.6780
11
-13.7717
21
12.9995
0
LINE
8
NFC_COIL
10
-13.7717
20
12.9995
11
-13.6498
21
13.3155
0
LINE
8
NFC_COIL
10
-13.6498
20
13.3155
11
-13.5125
21
13.6251
0
LINE
8
NFC_COIL
10
-13.5125
20
13.6251
11
-13.3603
21
13.9276
0
LINE
8
NFC_COIL
10
-13.3603
20
13.9276
11
-13.1933
21
14.2223
0
LINE
8
NFC_COIL
10
-13.1933
20
14.2223
11
-13.0121
21
14.5084
0
LINE
8
NFC_COIL
10
-13.0121
20
14.5084
11
-12.8171
21
14.7853
0
LINE
8
NFC_COIL
10
-12.8171
20
14.7853
11
-12.6088
21
15.0523
0
LINE
8
NFC_COIL
10
-12.6088
20
15.0523
11
-12.3876
21
15.3088
0
LINE
8
NFC_COIL
10
-12.3876
20
15.3088
11
-12.1540
21
15.5540
0
LINE
8
NFC_COIL
10
-12.1540
20
15.5540
11
-11.9088
21
15.7876
0
LINE
8
NFC_COIL
10
-11.9088
20
15.7876
11
-11.6523
21
16.0088
0
LINE
8
NFC_COIL
10
-11.6523
20
16.0088
11
-11.3853
21
16.2171
0
LINE
8
NFC_COIL
10
-11.3853
20
16.2171
11
-11.1084
21
16.4121
0
LINE
8
NFC_COIL
10
-11.1084
20
16.4121
11
-10.8223
21
16.5933
0
LINE
8
NFC_COIL
10
-10.8223
20
16.5933
11
-10.5276
21
16.7603
0
LINE
8
NFC_COIL
10
-10.5276
20
16.7603
11
-10.2251
21
16.9125
0
LINE
8
NFC_COIL
10
-10.2251
20
16.9125
11
-9.9155
21
17.0498
0
LINE
8
NFC_COIL
10
-9.9155
20
17.0498
11
-9.5995
21
17.1717
0
LINE
8
NFC_COIL
10
-9.5995
20
17.1717
11
-9.2780
21
17.2779
0
LINE
8
NFC_COIL
10
-9.2780
20
17.2779
11
-8.9516
21
17.3682
0
LINE
8
NFC_COIL
10
-8.9516
20
17.3682
11
-8.6211
21
17.4424
0
LINE
8
NFC_COIL
10
-8.6211
20
17.4424
11
-8.2874
21
17.5003
0
LINE
8
NFC_COIL
10
-8.2874
20
17.5003
11
-7.9513
21
17.5418
0
LINE
8
NFC_COIL
10
-7.9513
20
17.5418
11
-7.6136
21
17.5667
0
LINE
8
NFC_COIL
10
-7.6136
20
17.5667
11
-7.2750
21
17.5750
0
LINE
8
NFC_COIL
10
-7.2750
20
17.5750
11
7.2750
21
17.5750
0
LINE
8
NFC_COIL
10
7.2750
20
17.5750
11
7.5596
21
17.5680
0
LINE
8
NFC_COIL
10
7.5596
20
17.5680
11
7.8435
21
17.5471
0
LINE
8
NFC_COIL
10
7.8435
20
17.5471
11
8.1260
21
17.5122
0
LINE
8
NFC_COIL
10
8.1260
20
17.5122
11
8.4065
21
17.4636
0
LINE
8
NFC_COIL
10
8.4065
20
17.4636
11
8.6843
21
17.4012
0
LINE
8
NFC_COIL
10
8.6843
20
17.4012
11
8.9587
21
17.3253
0
LINE
8
NFC_COIL
10
8.9587
20
17.3253
11
9.2290
21
17.2360
0
LINE
8
NFC_COIL
10
9.2290
20
17.2360
11
9.4946
21
17.1335
0
LINE
8
NFC_COIL
10
9.4946
20
17.1335
11
9.7548
21
17.0181
0
LINE
8
NFC_COIL
10
9.7548
20
17.0181
11
10.0091
21
16.8901
0
LINE
8
NFC_COIL
10
10.0091
20
16.8901
11
10.2568
21
16.7498
0
LINE
8
NFC_COIL
10
10.2568
20
16.7498
11
10.4973
21
16.5975
0
LINE
8
NFC_COIL
10
10.4973
20
16.5975
11
10.7301
21
16.4336
0
LINE
8
NFC_COIL
10
10.7301
20
16.4336
11
10.9545
21
16.2585
0
LINE
8
NFC_COIL
10
10.9545
20
16.2585
11
11.1700
21
16.0725
0
LINE
8
NFC_COIL
10
11.1700
20
16.0725
11
11.3762
21
15.8762
0
LINE
8
NFC_COIL
10
11.3762
20
15.8762
11
11.5725
21
15.6700
0
LINE
8
NFC_COIL
10
11.5725
20
15.6700
11
11.7585
21
15.4545
0
LINE
8
NFC_COIL
10
11.7585
20
15.4545
11
11.9336
21
15.2301
0
LINE
8
NFC_COIL
10
11.9336
20
15.2301
11
12.0975
21
14.9973
0
LINE
8
NFC_COIL
10
12.0975
20
14.9973
11
12.2498
21
14.7568
0
LINE
8
NFC_COIL
10
12.2498
20
14.7568
11
12.3901
21
14.5091
0
LINE
8
NFC_COIL
10
12.3901
20
14.5091
11
12.5181
21
14.2548
0
LINE
8
NFC_COIL
10
12.5181
20
14.2548
11
12.6335
21
13.9946
0
LINE
8
NFC_COIL
10
12.6335
20
13.9946
11
12.7360
21
13.7290
0
LINE
8
NFC_COIL
10
12.7360
20
13.7290
11
12.8253
21
13.4587
0
LINE
8
NFC_COIL
10
12.8253
20
13.4587
11
12.9012
21
13.1843
0
LINE
8
NFC_COIL
10
12.9012
20
13.1843
11
12.9636
21
12.9065
0
LINE
8
NFC_COIL
10
12.9636
20
12.9065
11
13.0122
21
12.6260
0
LINE
8
NFC_COIL
10
13.0122
20
12.6260
11
13.0471
21
12.3435
0
LINE
8
NFC_COIL
10
13.0471
20
12.3435
11
13.0680
21
12.0596
0
LINE
8
NFC_COIL
10
13.0680
20
12.0596
11
13.0750
21
11.7750
0
LINE
8
NFC_COIL
10
13.0750
20
11.7750
11
13.0750
21
-11.7750
0
LINE
8
NFC_COIL
10
13.0750
20
-11.7750
11
13.0680
21
-12.0596
0
LINE
8
NFC_COIL
10
13.0680
20
-12.0596
11
13.0471
21
-12.3435
0
LINE
8
NFC_COIL
10
13.0471
20
-12.3435
11
13.0122
21
-12.6260
0
LINE
8
NFC_COIL
10
13.0122
20
-12.6260
11
12.9636
21
-12.9065
0
LINE
8
NFC_COIL
10
12.9636
20
-12.9065
11
12.9012
21
-13.1843
0
LINE
8
NFC_COIL
10
12.9012
20
-13.1843
11
12.8253
21
-13.4587
0
LINE
8
NFC_COIL
10
12.8253
20
-13.4587
11
12.7360
21
-13.7290
0
LINE
8
NFC_COIL
10
12.7360
20
-13.7290
11
12.6335
21
-13.9946
0
LINE
8
NFC_COIL
10
12.6335
20
-13.9946
11
12.5181
21
-14.2548
0
LINE
8
NFC_COIL
10
12.5181
20
-14.2548
11
12.3901
21
-14.5091
0
LINE
8
NFC_COIL
10
12.3901
20
-14.5091
11
12.2498
21
-14.7568
0
LINE
8
NFC_COIL
10
12.2498
20
-14.7568
11
12.0975
21
-14.9973
0
LINE
8
NFC_COIL
10
12.0975
20
-14.9973
11
11.9336
21
-15.2301
0
LINE
8
NFC_COIL
10
11.9336
20
-15.2301
11
11.7585
21
-15.4545
0
LINE
8
NFC_COIL
10
11.7585
20
-15.4545
11
11.5725
21
-15.6700
0
LINE
8
NFC_COIL
10
11.5725
20
-15.6700
11
11.3762
21
-15.8762
0
LINE
8
NFC_COIL
10
11.3762
20
-15.8762
11
11.1700
21
-16.0725
0
LINE
8
NFC_COIL
10
11.1700
20
-16.0725
11
10.9545
21
-16.2585
0
LINE
8
NFC_COIL
10
10.9545
20
-16.2585
11
10.7301
21
-16.4336
0
LINE
8
NFC_COIL
10
10.7301
20
-16.4336
11
10.4973
21
-16.5975
0
LINE
8
NFC_COIL
10
10.4973
20
-16.5975
11
10.2568
21
-16.7498
0
LINE
8
NFC_COIL
10
10.2568
20
-16.7498
11
10.0091
21
-16.8901
0
LINE
8
NFC_COIL
10
10.0091
20
-16.8901
11
9.7548
21
-17.0181
0
LINE
8
NFC_COIL
10
9.7548
20
-17.0181
11
9.4946
21
-17.1335
0
LINE
8
NFC_COIL
10
9.4946
20
-17.1335
11
9.2290
21
-17.2360
0
LINE
8
NFC_COIL
10
9.2290
20
-17.2360
11
8.9587
21
-17.3253
0
LINE
8
NFC_COIL
10
8.9587
20
-17.3253
11
8.6843
21
-17.4012
0
LINE
8
NFC_COIL
10
8.6843
20
-17.4012
11
8.4065
21
-17.4636
0
LINE
8
NFC_COIL
10
8.4065
20
-17.4636
11
8.1260
21
-17.5122
0
LINE
8
NFC_COIL
10
8.1260
20
-17.5122
11
7.8435
21
-17.5471
0
LINE
8
NFC_COIL
10
7.8435
20
-17.5471
11
7.5596
21
-17.5680
0
LINE
8
NFC_COIL
10
7.5596
20
-17.5680
11
7.2750
21
-17.5750
0
LINE
8
NFC_COIL
10
7.2750
20
-17.5750
11
-7.2750
21
-17.5750
0
LINE
8
NFC_COIL
10
-7.2750
20
-17.5750
11
-7.5596
21
-17.5680
0
LINE
8
NFC_COIL
10
-7.5596
20
-17.5680
11
-7.8435
21
-17.5471
0
LINE
8
NFC_COIL
10
-7.8435
20
-17.5471
11
-8.1260
21
-17.5122
0
LINE
8
NFC_COIL
10
-8.1260
20
-17.5122
11
-8.4065
21
-17.4636
0
LINE
8
NFC_COIL
10
-8.4065
20
-17.4636
11
-8.6843
21
-17.4012
0
LINE
8
NFC_COIL
10
-8.6843
20
-17.4012
11
-8.9587
21
-17.3253
0
LINE
8
NFC_COIL
10
-8.9587
20
-17.3253
11
-9.2290
21
-17.2360
0
LINE
8
NFC_COIL
10
-9.2290
20
-17.2360
11
-9.4946
21
-17.1335
0
LINE
8
NFC_COIL
10
-9.4946
20
-17.1335
11
-9.7548
21
-17.0181
0
LINE
8
NFC_COIL
10
-9.7548
20
-17.0181
11
-10.0091
21
-16.8901
0
LINE
8
NFC_COIL
10
-10.0091
20
-16.8901
11
-10.2568
21
-16.7498
0
LINE
8
NFC_COIL
10
-10.2568
20
-16.7498
11
-10.4973
21
-16.5975
0
LINE
8
NFC_COIL
10
-10.4973
20
-16.5975
11
-10.7301
21
-16.4336
0
LINE
8
NFC_COIL
10
-10.7301
20
-16.4336
11
-10.9545
21
-16.2585
0
LINE
8
NFC_COIL
10
-10.9545
20
-16.2585
11
-11.1700
21
-16.0725
0
LINE
8
NFC_COIL
10
-11.1700
20
-16.0725
11
-11.3762
21
-15.8762
0
LINE
8
NFC_COIL
10
-11.3762
20
-15.8762
11
-11.5725
21
-15.6700
0
LINE
8
NFC_COIL
10
-11.5725
20
-15.6700
11
-11.7585
21
-15.4545
0
LINE
8
NFC_COIL
10
-11.7585
20
-15.4545
11
-11.9336
21
-15.2301
0
LINE
8
NFC_COIL
10
-11.9336
20
-15.2301
11
-12.0975
21
-14.9973
0
LINE
8
NFC_COIL
10
-12.0975
20
-14.9973
11
-12.2498
21
-14.7568
0
LINE
8
NFC_COIL
10
-12.2498
20
-14.7568
11
-12.3901
21
-14.5091
0
LINE
8
NFC_COIL
10
-12.3901
20
-14.5091
11
-12.5181
21
-14.2548
0
LINE
8
NFC_COIL
10
-12.5181
20
-14.2548
11
-12.6335
21
-13.9946
0
LINE
8
NFC_COIL
10
-12.6335
20
-13.9946
11
-12.7360
21
-13.7290
0
LINE
8
NFC_COIL
10
-12.7360
20
-13.7290
11
-12.8253
21
-13.4587
0
LINE
8
NFC_COIL
10
-12.8253
20
-13.4587
11
-12.9012
21
-13.1843
0
LINE
8
NFC_COIL
10
-12.9012
20
-13.1843
11
-12.9636
21
-12.9065
0
LINE
8
NFC_COIL
10
-12.9636
20
-12.9065
11
-13.0122
21
-12.6260
0
LINE
8
NFC_COIL
10
-13.0122
20
-12.6260
11
-13.0471
21
-12.3435
0
LINE
8
NFC_COIL
10
-13.0471
20
-12.3435
11
-13.0680
21
-12.0596
0
LINE
8
NFC_COIL
10
-13.0680
20
-12.0596
11
-13.0750
21
-11.7750
0
LINE
8
NFC_COIL
10
-13.0750
20
-11.7750
11
-13.0750
21
10.6750
0
LINE
8
NFC_COIL
10
-13.0750
20
10.6750
11
-13.0680
21
10.9596
0
LINE
8
NFC_COIL
10
-13.0680
20
10.9596
11
-13.0471
21
11.2435
0
LINE
8
NFC_COIL
10
-13.0471
20
11.2435
11
-13.0122
21
11.5260
0
LINE
8
NFC_COIL
10
-13.0122
20
11.5260
11
-12.9636
21
11.8065
0
LINE
8
NFC_COIL
10
-12.9636
20
11.8065
11
-12.9012
21
12.0843
0
LINE
8
NFC_COIL
10
-12.9012
20
12.0843
11
-12.8253
21
12.3587
0
LINE
8
NFC_COIL
10
-12.8253
20
12.3587
11
-12.7360
21
12.6290
0
LINE
8
NFC_COIL
10
-12.7360
20
12.6290
11
-12.6335
21
12.8946
0
LINE
8
NFC_COIL
10
-12.6335
20
12.8946
11
-12.5181
21
13.1548
0
LINE
8
NFC_COIL
10
-12.5181
20
13.1548
11
-12.3901
21
13.4091
0
LINE
8
NFC_COIL
10
-12.3901
20
13.4091
11
-12.2498
21
13.6568
0
LINE
8
NFC_COIL
10
-12.2498
20
13.6568
11
-12.0975
21
13.8973
0
LINE
8
NFC_COIL
10
-12.0975
20
13.8973
11
-11.9336
21
14.1301
0
LINE
8
NFC_COIL
10
-11.9336
20
14.1301
11
-11.7585
21
14.3545
0
LINE
8
NFC_COIL
10
-11.7585
20
14.3545
11
-11.5725
21
14.5700
0
LINE
8
NFC_COIL
10
-11.5725
20
14.5700
11
-11.3762
21
14.7762
0
LINE
8
NFC_COIL
10
-11.3762
20
14.7762
11
-11.1700
21
14.9725
0
LINE
8
NFC_COIL
10
-11.1700
20
14.9725
11
-10.9545
21
15.1585
0
LINE
8
NFC_COIL
10
-10.9545
20
15.1585
11
-10.7301
21
15.3336
0
LINE
8
NFC_COIL
10
-10.7301
20
15.3336
11
-10.4973
21
15.4975
0
LINE
8
NFC_COIL
10
-10.4973
20
15.4975
11
-10.2568
21
15.6498
0
LINE
8
NFC_COIL
10
-10.2568
20
15.6498
11
-10.0091
21
15.7901
0
LINE
8
NFC_COIL
10
-10.0091
20
15.7901
11
-9.7548
21
15.9181
0
LINE
8
NFC_COIL
10
-9.7548
20
15.9181
11
-9.4946
21
16.0335
0
LINE
8
NFC_COIL
10
-9.4946
20
16.0335
11
-9.2290
21
16.1360
0
LINE
8
NFC_COIL
10
-9.2290
20
16.1360
11
-8.9587
21
16.2253
0
LINE
8
NFC_COIL
10
-8.9587
20
16.2253
11
-8.6843
21
16.3012
0
LINE
8
NFC_COIL
10
-8.6843
20
16.3012
11
-8.4065
21
16.3636
0
LINE
8
NFC_COIL
10
-8.4065
20
16.3636
11
-8.1260
21
16.4122
0
LINE
8
NFC_COIL
10
-8.1260
20
16.4122
11
-7.8435
21
16.4471
0
LINE
8
NFC_COIL
10
-7.8435
20
16.4471
11
-7.5596
21
16.4680
0
LINE
8
NFC_COIL
10
-7.5596
20
16.4680
11
-7.2750
21
16.4750
0
LINE
8
NFC_COIL
10
-7.2750
20
16.4750
11
7.2750
21
16.4750
0
LINE
8
NFC_COIL
10
7.2750
20
16.4750
11
7.5056
21
16.4693
0
LINE
8
NFC_COIL
10
7.5056
20
16.4693
11
7.7357
21
16.4524
0
LINE
8
NFC_COIL
10
7.7357
20
16.4524
11
7.9646
21
16.4241
0
LINE
8
NFC_COIL
10
7.9646
20
16.4241
11
8.1919
21
16.3847
0
LINE
8
NFC_COIL
10
8.1919
20
16.3847
11
8.4170
21
16.3341
0
LINE
8
NFC_COIL
10
8.4170
20
16.3341
11
8.6393
21
16.2726
0
LINE
8
NFC_COIL
10
8.6393
20
16.2726
11
8.8584
21
16.2003
0
LINE
8
NFC_COIL
10
8.8584
20
16.2003
11
9.0736
21
16.1172
0
LINE
8
NFC_COIL
10
9.0736
20
16.1172
11
9.2845
21
16.0237
0
LINE
8
NFC_COIL
10
9.2845
20
16.0237
11
9.4906
21
15.9200
0
LINE
8
NFC_COIL
10
9.4906
20
15.9200
11
9.6913
21
15.8063
0
LINE
8
NFC_COIL
10
9.6913
20
15.8063
11
9.8862
21
15.6829
0
LINE
8
NFC_COIL
10
9.8862
20
15.6829
11
10.0748
21
15.5501
0
LINE
8
NFC_COIL
10
10.0748
20
15.5501
11
10.2566
21
15.4081
0
LINE
8
NFC_COIL
10
10.2566
20
15.4081
11
10.4313
21
15.2575
0
LINE
8
NFC_COIL
10
10.4313
20
15.2575
11
10.5984
21
15.0984
0
LINE
8
NFC_COIL
10
10.5984
20
15.0984
11
10.7575
21
14.9313
0
LINE
8
NFC_COIL
10
10.7575
20
14.9313
11
10.9081
21
14.7566
0
LINE
8
NFC_COIL
10
10.9081
20
14.7566
11
11.0501
21
14.5748
0
LINE
8
NFC_COIL
10
11.0501
20
14.5748
11
11.1829
21
14.3862
0
LINE
8
NFC_COIL
10
11.1829
20
14.3862
11
11.3063
21
14.1913
0
LINE
8
NFC_COIL
10
11.3063
20
14.1913
11
11.4200
21
13.9906
0
LINE
8
NFC_COIL
10
11.4200
20
13.9906
11
11.5237
21
13.7845
0
LINE
8
NFC_COIL
10
11.5237
20
13.7845
11
11.6172
21
13.5736
0
LINE
8
NFC_COIL
10
11.6172
20
13.5736
11
11.7003
21
13.3584
0
LINE
8
NFC_COIL
10
11.7003
20
13.3584
11
11.7726
21
13.1393
0
LINE
8
NFC_COIL
10
11.7726
20
13.1393
11
11.8341
21
12.9170
0
LINE
8
NFC_COIL
10
11.8341
20
12.9170
11
11.8847
21
12.6919
0
LINE
8
NFC_COIL
10
11.8847
20
12.6919
11
11.9241
21
12.4646
0
LINE
8
NFC_COIL
10
11.9241
20
12.4646
11
11.9524
21
12.2357
0
LINE
8
NFC_COIL
10
11.9524
20
12.2357
11
11.9693
21
12.0056
0
LINE
8
NFC_COIL
10
11.9693
20
12.0056
11
11.9750
21
11.7750
0
LINE
8
NFC_COIL
10
11.9750
20
11.7750
11
11.9750
21
-11.7750
0
LINE
8
NFC_COIL
10
11.9750
20
-11.7750
11
11.9693
21
-12.0056
0
LINE
8
NFC_COIL
10
11.9693
20
-12.0056
11
11.9524
21
-12.2357
0
LINE
8
NFC_COIL
10
11.9524
20
-12.2357
11
11.9241
21
-12.4646
0
LINE
8
NFC_COIL
10
11.9241
20
-12.4646
11
11.8847
21
-12.6919
0
LINE
8
NFC_COIL
10
11.8847
20
-12.6919
11
11.8341
21
-12.9170
0
LINE
8
NFC_COIL
10
11.8341
20
-12.9170
11
11.7726
21
-13.1393
0
LINE
8
NFC_COIL
10
11.7726
20
-13.1393
11
11.7003
21
-13.3584
0
LINE
8
NFC_COIL
10
11.7003
20
-13.3584
11
11.6172
21
-13.5736
0
LINE
8
NFC_COIL
10
11.6172
20
-13.5736
11
11.5237
21
-13.7845
0
LINE
8
NFC_COIL
10
11.5237
20
-13.7845
11
11.4200
21
-13.9906
0
LINE
8
NFC_COIL
10
11.4200
20
-13.9906
11
11.3063
21
-14.1913
0
LINE
8
NFC_COIL
10
11.3063
20
-14.1913
11
11.1829
21
-14.3862
0
LINE
8
NFC_COIL
10
11.1829
20
-14.3862
11
11.0501
21
-14.5748
0
LINE
8
NFC_COIL
10
11.0501
20
-14.5748
11
10.9081
21
-14.7566
0
LINE
8
NFC_COIL
10
10.9081
20
-14.7566
11
10.7575
21
-14.9313
0
LINE
8
NFC_COIL
10
10.7575
20
-14.9313
11
10.5984
21
-15.0984
0
LINE
8
NFC_COIL
10
10.5984
20
-15.0984
11
10.4313
21
-15.2575
0
LINE
8
NFC_COIL
10
10.4313
20
-15.2575
11
10.2566
21
-15.4081
0
LINE
8
NFC_COIL
10
10.2566
20
-15.4081
11
10.0748
21
-15.5501
0
LINE
8
NFC_COIL
10
10.0748
20
-15.5501
11
9.8862
21
-15.6829
0
LINE
8
NFC_COIL
10
9.8862
20
-15.6829
11
9.6913
21
-15.8063
0
LINE
8
NFC_COIL
10
9.6913
20
-15.8063
11
9.4906
21
-15.9200
0
LINE
8
NFC_COIL
10
9.4906
20
-15.9200
11
9.2845
21
-16.0237
0
LINE
8
NFC_COIL
10
9.2845
20
-16.0237
11
9.0736
21
-16.1172
0
LINE
8
NFC_COIL
10
9.0736
20
-16.1172
11
8.8584
21
-16.2003
0
LINE
8
NFC_COIL
10
8.8584
20
-16.2003
11
8.6393
21
-16.2726
0
LINE
8
NFC_COIL
10
8.6393
20
-16.2726
11
8.4170
21
-16.3341
0
LINE
8
NFC_COIL
10
8.4170
20
-16.3341
11
8.1919
21
-16.3847
0
LINE
8
NFC_COIL
10
8.1919
20
-16.3847
11
7.9646
21
-16.4241
0
LINE
8
NFC_COIL
10
7.9646
20
-16.4241
11
7.7357
21
-16.4524
0
LINE
8
NFC_COIL
10
7.7357
20
-16.4524
11
7.5056
21
-16.4693
0
LINE
8
NFC_COIL
10
7.5056
20
-16.4693
11
7.2750
21
-16.4750
0
LINE
8
NFC_COIL
10
7.2750
20
-16.4750
11
-7.2750
21
-16.4750
0
LINE
8
NFC_COIL
10
-7.2750
20
-16.4750
11
-7.5056
21
-16.4693
0
LINE
8
NFC_COIL
10
-7.5056
20
-16.4693
11
-7.7357
21
-16.4524
0
LINE
8
NFC_COIL
10
-7.7357
20
-16.4524
11
-7.9646
21
-16.4241
0
LINE
8
NFC_COIL
10
-7.9646
20
-16.4241
11
-8.1919
21
-16.3847
0
LINE
8
NFC_COIL
10
-8.1919
20
-16.3847
11
-8.4170
21
-16.3341
0
LINE
8
NFC_COIL
10
-8.4170
20
-16.3341
11
-8.6393
21
-16.2726
0
LINE
8
NFC_COIL
10
-8.6393
20
-16.2726
11
-8.8584
21
-16.2003
0
LINE
8
NFC_COIL
10
-8.8584
20
-16.2003
11
-9.0736
21
-16.1172
0
LINE
8
NFC_COIL
10
-9.0736
20
-16.1172
11
-9.2845
21
-16.0237
0
LINE
8
NFC_COIL
10
-9.2845
20
-16.0237
11
-9.4906
21
-15.9200
0
LINE
8
NFC_COIL
10
-9.4906
20
-15.9200
11
-9.6913
21
-15.8063
0
LINE
8
NFC_COIL
10
-9.6913
20
-15.8063
11
-9.8862
21
-15.6829
0
LINE
8
NFC_COIL
10
-9.8862
20
-15.6829
11
-10.0748
21
-15.5501
0
LINE
8
NFC_COIL
10
-10.0748
20
-15.5501
11
-10.2566
21
-15.4081
0
LINE
8
NFC_COIL
10
-10.2566
20
-15.4081
11
-10.4313
21
-15.2575
0
LINE
8
NFC_COIL
10
-10.4313
20
-15.2575
11
-10.5984
21
-15.0984
0
LINE
8
NFC_COIL
10
-10.5984
20
-15.0984
11
-10.7575
21
-14.9313
0
LINE
8
NFC_COIL
10
-10.7575
20
-14.9313
11
-10.9081
21
-14.7566
0
LINE
8
NFC_COIL
10
-10.9081
20
-14.7566
11
-11.0501
21
-14.5748
0
LINE
8
NFC_COIL
10
-11.0501
20
-14.5748
11
-11.1829
21
-14.3862
0
LINE
8
NFC_COIL
10
-11.1829
20
-14.3862
11
-11.3063
21
-14.1913
0
LINE
8
NFC_COIL
10
-11.3063
20
-14.1913
11
-11.4200
21
-13.9906
0
LINE
8
NFC_COIL
10
-11.4200
20
-13.9906
11
-11.5237
21
-13.7845
0
LINE
8
NFC_COIL
10
-11.5237
20
-13.7845
11
-11.6172
21
-13.5736
0
LINE
8
NFC_COIL
10
-11.6172
20
-13.5736
11
-11.7003
21
-13.3584
0
LINE
8
NFC_COIL
10
-11.7003
20
-13.3584
11
-11.7726
21
-13.1393
0
LINE
8
NFC_COIL
10
-11.7726
20
-13.1393
11
-11.8341
21
-12.9170
0
LINE
8
NFC_COIL
10
-11.8341
20
-12.9170
11
-11.8847
21
-12.6919
0
LINE
8
NFC_COIL
10
-11.8847
20
-12.6919
11
-11.9241
21
-12.4646
0
LINE
8
NFC_COIL
10
-11.9241
20
-12.4646
11
-11.9524
21
-12.2357
0
LINE
8
NFC_COIL
10
-11.9524
20
-12.2357
11
-11.9693
21
-12.0056
0
LINE
8
NFC_COIL
10
-11.9693
20
-12.0056
11
-11.9750
21
-11.7750
0
LINE
8
NFC_COIL
10
-11.9750
20
-11.7750
11
-11.9750
21
10.6750
0
LINE
8
NFC_COIL
10
-11.9750
20
10.6750
11
-11.9693
21
10.9056
0
LINE
8
NFC_COIL
10
-11.9693
20
10.9056
11
-11.9524
21
11.1357
0
LINE
8
NFC_COIL
10
-11.9524
20
11.1357
11
-11.9241
21
11.3646
0
LINE
8
NFC_COIL
10
-11.9241
20
11.3646
11
-11.8847
21
11.5919
0
LINE
8
NFC_COIL
10
-11.8847
20
11.5919
11
-11.8341
21
11.8170
0
LINE
8
NFC_COIL
10
-11.8341
20
11.8170
11
-11.7726
21
12.0393
0
LINE
8
NFC_COIL
10
-11.7726
20
12.0393
11
-11.7003
21
12.2584
0
LINE
8
NFC_COIL
10
-11.7003
20
12.2584
11
-11.6172
21
12.4736
0
LINE
8
NFC_COIL
10
-11.6172
20
12.4736
11
-11.5237
21
12.6845
0
LINE
8
NFC_COIL
10
-11.5237
20
12.6845
11
-11.4200
21
12.8906
0
LINE
8
NFC_COIL
10
-11.4200
20
12.8906
11
-11.3063
21
13.0913
0
LINE
8
NFC_COIL
10
-11.3063
20
13.0913
11
-11.1829
21
13.2862
0
LINE
8
NFC_COIL
10
-11.1829
20
13.2862
11
-11.0501
21
13.4748
0
LINE
8
NFC_COIL
10
-11.0501
20
13.4748
11
-10.9081
21
13.6566
0
LINE
8
NFC_COIL
10
-10.9081
20
13.6566
11
-10.7575
21
13.8313
0
LINE
8
NFC_COIL
10
-10.7575
20
13.8313
11
-10.5984
21
13.9984
0
LINE
8
NFC_COIL
10
-10.5984
20
13.9984
11
-10.4313
21
14.1575
0
LINE
8
NFC_COIL
10
-10.4313
20
14.1575
11
-10.2566
21
14.3081
0
LINE
8
NFC_COIL
10
-10.2566
20
14.3081
11
-10.0748
21
14.4501
0
LINE
8
NFC_COIL
10
-10.0748
20
14.4501
11
-9.8862
21
14.5829
0
LINE
8
NFC_COIL
10
-9.8862
20
14.5829
11
-9.6913
21
14.7063
0
LINE
8
NFC_COIL
10
-9.6913
20
14.7063
11
-9.4906
21
14.8200
0
LINE
8
NFC_COIL
10
-9.4906
20
14.8200
11
-9.2845
21
14.9237
0
LINE
8
NFC_COIL
10
-9.2845
20
14.9237
11
-9.0736
21
15.0172
0
LINE
8
NFC_COIL
10
-9.0736
20
15.0172
11
-8.8584
21
15.1003
0
LINE
8
NFC_COIL
10
-8.8584
20
15.1003
11
-8.6393
21
15.1726
0
LINE
8
NFC_COIL
10
-8.6393
20
15.1726
11
-8.4170
21
15.2341
0
LINE
8
NFC_COIL
10
-8.4170
20
15.2341
11
-8.1919
21
15.2847
0
LINE
8
NFC_COIL
10
-8.1919
20
15.2847
11
-7.9646
21
15.3241
0
LINE
8
NFC_COIL
10
-7.9646
20
15.3241
11
-7.7357
21
15.3524
0
LINE
8
NFC_COIL
10
-7.7357
20
15.3524
11
-7.5056
21
15.3693
0
LINE
8
NFC_COIL
10
-7.5056
20
15.3693
11
-7.2750
21
15.3750
0
LINE
8
NFC_COIL
10
-7.2750
20
15.3750
11
7.2750
21
15.3750
0
LINE
8
NFC_COIL
10
7.2750
20
15.3750
11
7.4516
21
15.3707
0
LINE
8
NFC_COIL
10
7.4516
20
15.3707
11
7.6279
21
15.3577
0
LINE
8
NFC_COIL
10
7.6279
20
15.3577
11
7.8032
21
15.3360
0
LINE
8
NFC_COIL
10
7.8032
20
15.3360
11
7.9773
21
15.3058
0
LINE
8
NFC_COIL
10
7.9773
20
15.3058
11
8.1497
21
15.2671
0
LINE
8
NFC_COIL
10
8.1497
20
15.2671
11
8.3200
21
15.2200
0
LINE
8
NFC_COIL
10
8.3200
20
15.2200
11
8.4878
21
15.1646
0
LINE
8
NFC_COIL
10
8.4878
20
15.1646
11
8.6527
21
15.1010
0
LINE
8
NFC_COIL
10
8.6527
20
15.1010
11
8.8142
21
15.0294
0
LINE
8
NFC_COIL
10
8.8142
20
15.0294
11
8.9720
21
14.9499
0
LINE
8
NFC_COIL
10
8.9720
20
14.9499
11
9.1258
21
14.8628
0
LINE
8
NFC_COIL
10
9.1258
20
14.8628
11
9.2751
21
14.7683
0
LINE
8
NFC_COIL
10
9.2751
20
14.7683
11
9.4195
21
14.6665
0
LINE
8
NFC_COIL
10
9.4195
20
14.6665
11
9.5588
21
14.5578
0
LINE
8
NFC_COIL
10
9.5588
20
14.5578
11
9.6926
21
14.4424
0
LINE
8
NFC_COIL
10
9.6926
20
14.4424
11
9.8206
21
14.3206
0
LINE
8
NFC_COIL
10
9.8206
20
14.3206
11
9.9424
21
14.1926
0
LINE
8
NFC_COIL
10
9.9424
20
14.1926
11
10.0578
21
14.0588
0
LINE
8
NFC_COIL
10
10.0578
20
14.0588
11
10.1665
21
13.9195
0
LINE
8
NFC_COIL
10
10.1665
20
13.9195
11
10.2683
21
13.7751
0
LINE
8
NFC_COIL
10
10.2683
20
13.7751
11
10.3628
21
13.6258
0
LINE
8
NFC_COIL
10
10.3628
20
13.6258
11
10.4499
21
13.4720
0
LINE
8
NFC_COIL
10
10.4499
20
13.4720
11
10.5294
21
13.3142
0
LINE
8
NFC_COIL
10
10.5294
20
13.3142
11
10.6010
21
13.1527
0
LINE
8
NFC_COIL
10
10.6010
20
13.1527
11
10.6646
21
12.9878
0
LINE
8
NFC_COIL
10
10.6646
20
12.9878
11
10.7200
21
12.8200
0
LINE
8
NFC_COIL
10
10.7200
20
12.8200
11
10.7671
21
12.6497
0
LINE
8
NFC_COIL
10
10.7671
20
12.6497
11
10.8058
21
12.4773
0
LINE
8
NFC_COIL
10
10.8058
20
12.4773
11
10.8360
21
12.3032
0
LINE
8
NFC_COIL
10
10.8360
20
12.3032
11
10.8577
21
12.1279
0
LINE
8
NFC_COIL
10
10.8577
20
12.1279
11
10.8707
21
11.9516
0
LINE
8
NFC_COIL
10
10.8707
20
11.9516
11
10.8750
21
11.7750
0
LINE
8
NFC_COIL
10
10.8750
20
11.7750
11
10.8750
21
-11.7750
0
LINE
8
NFC_COIL
10
10.8750
20
-11.7750
11
10.8707
21
-11.9516
0
LINE
8
NFC_COIL
10
10.8707
20
-11.9516
11
10.8577
21
-12.1279
0
LINE
8
NFC_COIL
10
10.8577
20
-12.1279
11
10.8360
21
-12.3032
0
LINE
8
NFC_COIL
10
10.8360
20
-12.3032
11
10.8058
21
-12.4773
0
LINE
8
NFC_COIL
10
10.8058
20
-12.4773
11
10.7671
21
-12.6497
0
LINE
8
NFC_COIL
10
10.7671
20
-12.6497
11
10.7200
21
-12.8200
0
LINE
8
NFC_COIL
10
10.7200
20
-12.8200
11
10.6646
21
-12.9878
0
LINE
8
NFC_COIL
10
10.6646
20
-12.9878
11
10.6010
21
-13.1527
0
LINE
8
NFC_COIL
10
10.6010
20
-13.1527
11
10.5294
21
-13.3142
0
LINE
8
NFC_COIL
10
10.5294
20
-13.3142
11
10.4499
21
-13.4720
0
LINE
8
NFC_COIL
10
10.4499
20
-13.4720
11
10.3628
21
-13.6258
0
LINE
8
NFC_COIL
10
10.3628
20
-13.6258
11
10.2683
21
-13.7751
0
LINE
8
NFC_COIL
10
10.2683
20
-13.7751
11
10.1665
21
-13.9195
0
LINE
8
NFC_COIL
10
10.1665
20
-13.9195
11
10.0578
21
-14.0588
0
LINE
8
NFC_COIL
10
10.0578
20
-14.0588
11
9.9424
21
-14.1926
0
LINE
8
NFC_COIL
10
9.9424
20
-14.1926
11
9.8206
21
-14.3206
0
LINE
8
NFC_COIL
10
9.8206
20
-14.3206
11
9.6926
21
-14.4424
0
LINE
8
NFC_COIL
10
9.6926
20
-14.4424
11
9.5588
21
-14.5578
0
LINE
8
NFC_COIL
10
9.5588
20
-14.5578
11
9.4195
21
-14.6665
0
LINE
8
NFC_COIL
10
9.4195
20
-14.6665
11
9.2751
21
-14.7683
0
LINE
8
NFC_COIL
10
9.2751
20
-14.7683
11
9.1258
21
-14.8628
0
LINE
8
NFC_COIL
10
9.1258
20
-14.8628
11
8.9720
21
-14.9499
0
LINE
8
NFC_COIL
10
8.9720
20
-14.9499
11
8.8142
21
-15.0294
0
LINE
8
NFC_COIL
10
8.8142
20
-15.0294
11
8.6527
21
-15.1010
0
LINE
8
NFC_COIL
10
8.6527
20
-15.1010
11
8.4878
21
-15.1646
0
LINE
8
NFC_COIL
10
8.4878
20
-15.1646
11
8.3200
21
-15.2200
0
LINE
8
NFC_COIL
10
8.3200
20
-15.2200
11
8.1497
21
-15.2671
0
LINE
8
NFC_COIL
10
8.1497
20
-15.2671
11
7.9773
21
-15.3058
0
LINE
8
NFC_COIL
10
7.9773
20
-15.3058
11
7.8032
21
-15.3360
0
LINE
8
NFC_COIL
10
7.8032
20
-15.3360
11
7.6279
21
-15.3577
0
LINE
8
NFC_COIL
10
7.6279
20
-15.3577
11
7.4516
21
-15.3707
0
LINE
8
NFC_COIL
10
7.4516
20
-15.3707
11
7.2750
21
-15.3750
0
LINE
8
NFC_COIL
10
7.2750
20
-15.3750
11
-7.2750
21
-15.3750
0
LINE
8
NFC_COIL
10
-7.2750
20
-15.3750
11
-7.4516
21
-15.3707
0
LINE
8
NFC_COIL
10
-7.4516
20
-15.3707
11
-7.6279
21
-15.3577
0
LINE
8
NFC_COIL
10
-7.6279
20
-15.3577
11
-7.8032
21
-15.3360
0
LINE
8
NFC_COIL
10
-7.8032
20
-15.3360
11
-7.9773
21
-15.3058
0
LINE
8
NFC_COIL
10
-7.9773
20
-15.3058
11
-8.1497
21
-15.2671
0
LINE
8
NFC_COIL
10
-8.1497
20
-15.2671
11
-8.3200
21
-15.2200
0
LINE
8
NFC_COIL
10
-8.3200
20
-15.2200
11
-8.4878
21
-15.1646
0
LINE
8
NFC_COIL
10
-8.4878
20
-15.1646
11
-8.6527
21
-15.1010
0
LINE
8
NFC_COIL
10
-8.6527
20
-15.1010
11
-8.8142
21
-15.0294
0
LINE
8
NFC_COIL
10
-8.8142
20
-15.0294
11
-8.9720
21
-14.9499
0
LINE
8
NFC_COIL
10
-8.9720
20
-14.9499
11
-9.1258
21
-14.8628
0
LINE
8
NFC_COIL
10
-9.1258
20
-14.8628
11
-9.2751
21
-14.7683
0
LINE
8
NFC_COIL
10
-9.2751
20
-14.7683
11
-9.4195
21
-14.6665
0
LINE
8
NFC_COIL
10
-9.4195
20
-14.6665
11
-9.5588
21
-14.5578
0
LINE
8
NFC_COIL
10
-9.5588
20
-14.5578
11
-9.6926
21
-14.4424
0
LINE
8
NFC_COIL
10
-9.6926
20
-14.4424
11
-9.8206
21
-14.3206
0
LINE
8
NFC_COIL
10
-9.8206
20
-14.3206
11
-9.9424
21
-14.1926
0
LINE
8
NFC_COIL
10
-9.9424
20
-14.1926
11
-10.0578
21
-14.0588
0
LINE
8
NFC_COIL
10
-10.0578
20
-14.0588
11
-10.1665
21
-13.9195
0
LINE
8
NFC_COIL
10
-10.1665
20
-13.9195
11
-10.2683
21
-13.7751
0
LINE
8
NFC_COIL
10
-10.2683
20
-13.7751
11
-10.3628
21
-13.6258
0
LINE
8
NFC_COIL
10
-10.3628
20
-13.6258
11
-10.4499
21
-13.4720
0
LINE
8
NFC_COIL
10
-10.4499
20
-13.4720
11
-10.5294
21
-13.3142
0
LINE
8
NFC_COIL
10
-10.5294
20
-13.3142
11
-10.6010
21
-13.1527
0
LINE
8
NFC_COIL
10
-10.6010
20
-13.1527
11
-10.6646
21
-12.9878
0
LINE
8
NFC_COIL
10
-10.6646
20
-12.9878
11
-10.7200
21
-12.8200
0
LINE
8
NFC_COIL
10
-10.7200
20
-12.8200
11
-10.7671
21
-12.6497
0
LINE
8
NFC_COIL
10
-10.7671
20
-12.6497
11
-10.8058
21
-12.4773
0
LINE
8
NFC_COIL
10
-10.8058
20
-12.4773
11
-10.8360
21
-12.3032
0
LINE
8
NFC_COIL
10
-10.8360
20
-12.3032
11
-10.8577
21
-12.1279
0
LINE
8
NFC_COIL
10
-10.8577
20
-12.1279
11
-10.8707
21
-11.9516
0
LINE
8
NFC_COIL
10
-10.8707
20
-11.9516
11
-10.8750
21
-11.7750
0
LINE
8
NFC_COIL
10
-10.8750
20
-11.7750
11
-10.8750
21
10.6750
0
LINE
8
NFC_COIL
10
-10.8750
20
10.6750
11
-10.8707
21
10.8516
0
LINE
8
NFC_COIL
10
-10.8707
20
10.8516
11
-10.8577
21
11.0279
0
LINE
8
NFC_COIL
10
-10.8577
20
11.0279
11
-10.8360
21
11.2032
0
LINE
8
NFC_COIL
10
-10.8360
20
11.2032
11
-10.8058
21
11.3773
0
LINE
8
NFC_COIL
10
-10.8058
20
11.3773
11
-10.7671
21
11.5497
0
LINE
8
NFC_COIL
10
-10.7671
20
11.5497
11
-10.7200
21
11.7200
0
LINE
8
NFC_COIL
10
-10.7200
20
11.7200
11
-10.6646
21
11.8878
0
LINE
8
NFC_COIL
10
-10.6646
20
11.8878
11
-10.6010
21
12.0527
0
LINE
8
NFC_COIL
10
-10.6010
20
12.0527
11
-10.5294
21
12.2142
0
LINE
8
NFC_COIL
10
-10.5294
20
12.2142
11
-10.4499
21
12.3720
0
LINE
8
NFC_COIL
10
-10.4499
20
12.3720
11
-10.3628
21
12.5258
0
LINE
8
NFC_COIL
10
-10.3628
20
12.5258
11
-10.2683
21
12.6751
0
LINE
8
NFC_COIL
10
-10.2683
20
12.6751
11
-10.1665
21
12.8195
0
LINE
8
NFC_COIL
10
-10.1665
20
12.8195
11
-10.0578
21
12.9588
0
LINE
8
NFC_COIL
10
-10.0578
20
12.9588
11
-9.9424
21
13.0926
0
LINE
8
NFC_COIL
10
-9.9424
20
13.0926
11
-9.8206
21
13.2206
0
LINE
8
NFC_COIL
10
-9.8206
20
13.2206
11
-9.6926
21
13.3424
0
LINE
8
NFC_COIL
10
-9.6926
20
13.3424
11
-9.5588
21
13.4578
0
LINE
8
NFC_COIL
10
-9.5588
20
13.4578
11
-9.4195
21
13.5665
0
LINE
8
NFC_COIL
10
-9.4195
20
13.5665
11
-9.2751
21
13.6683
0
LINE
8
NFC_COIL
10
-9.2751
20
13.6683
11
-9.1258
21
13.7628
0
LINE
8
NFC_COIL
10
-9.1258
20
13.7628
11
-8.9720
21
13.8499
0
LINE
8
NFC_COIL
10
-8.9720
20
13.8499
11
-8.8142
21
13.9294
0
LINE
8
NFC_COIL
10
-8.8142
20
13.9294
11
-8.6527
21
14.0010
0
LINE
8
NFC_COIL
10
-8.6527
20
14.0010
11
-8.4878
21
14.0646
0
LINE
8
NFC_COIL
10
-8.4878
20
14.0646
11
-8.3200
21
14.1200
0
LINE
8
NFC_COIL
10
-8.3200
20
14.1200
11
-8.1497
21
14.1671
0
LINE
8
NFC_COIL
10
-8.1497
20
14.1671
11
-7.9773
21
14.2058
0
LINE
8
NFC_COIL
10
-7.9773
20
14.2058
11
-7.8032
21
14.2360
0
LINE
8
NFC_COIL
10
-7.8032
20
14.2360
11
-7.6279
21
14.2577
0
LINE
8
NFC_COIL
10
-7.6279
20
14.2577
11
-7.4516
21
14.2707
0
LINE
8
NFC_COIL
10
-7.4516
20
14.2707
11
-7.2750
21
14.2750
0
LINE
8
NFC_COIL
10
-7.2750
20
14.2750
11
7.2750
21
14.2750
0
LINE
8
NFC_COIL
10
7.2750
20
14.2750
11
7.3977
21
14.2720
0
LINE
8
NFC_COIL
10
7.3977
20
14.2720
11
7.5200
21
14.2630
0
LINE
8
NFC_COIL
10
7.5200
20
14.2630
11
7.6418
21
14.2479
0
LINE
8
NFC_COIL
10
7.6418
20
14.2479
11
7.7627
21
14.2270
0
LINE
8
NFC_COIL
10
7.7627
20
14.2270
11
7.8825
21
14.2001
0
LINE
8
NFC_COIL
10
7.8825
20
14.2001
11
8.0007
21
14.1674
0
LINE
8
NFC_COIL
10
8.0007
20
14.1674
11
8.1172
21
14.1289
0
LINE
8
NFC_COIL
10
8.1172
20
14.1289
11
8.2317
21
14.0847
0
LINE
8
NFC_COIL
10
8.2317
20
14.0847
11
8.3439
21
14.0350
0
LINE
8
NFC_COIL
10
8.3439
20
14.0350
11
8.4535
21
13.9798
0
LINE
8
NFC_COIL
10
8.4535
20
13.9798
11
8.5603
21
13.9193
0
LINE
8
NFC_COIL
10
8.5603
20
13.9193
11
8.6639
21
13.8537
0
LINE
8
NFC_COIL
10
8.6639
20
13.8537
11
8.7642
21
13.7830
0
LINE
8
NFC_COIL
10
8.7642
20
13.7830
11
8.8610
21
13.7075
0
LINE
8
NFC_COIL
10
8.8610
20
13.7075
11
8.9539
21
13.6274
0
LINE
8
NFC_COIL
10
8.9539
20
13.6274
11
9.0428
21
13.5428
0
LINE
8
NFC_COIL
10
9.0428
20
13.5428
11
9.1274
21
13.4539
0
LINE
8
NFC_COIL
10
9.1274
20
13.4539
11
9.2075
21
13.3610
0
LINE
8
NFC_COIL
10
9.2075
20
13.3610
11
9.2830
21
13.2642
0
LINE
8
NFC_COIL
10
9.2830
20
13.2642
11
9.3537
21
13.1639
0
LINE
8
NFC_COIL
10
9.3537
20
13.1639
11
9.4193
21
13.0603
0
LINE
8
NFC_COIL
10
9.4193
20
13.0603
11
9.4798
21
12.9535
0
LINE
8
NFC_COIL
10
9.4798
20
12.9535
11
9.5350
21
12.8439
0
LINE
8
NFC_COIL
10
9.5350
20
12.8439
11
9.5847
21
12.7317
0
LINE
8
NFC_COIL
10
9.5847
20
12.7317
11
9.6289
21
12.6172
0
LINE
8
NFC_COIL
10
9.6289
20
12.6172
11
9.6674
21
12.5007
0
LINE
8
NFC_COIL
10
9.6674
20
12.5007
11
9.7001
21
12.3825
0
LINE
8
NFC_COIL
10
9.7001
20
12.3825
11
9.7270
21
12.2627
0
LINE
8
NFC_COIL
10
9.7270
20
12.2627
11
9.7479
21
12.1418
0
LINE
8
NFC_COIL
10
9.7479
20
12.1418
11
9.7630
21
12.0200
0
LINE
8
NFC_COIL
10
9.7630
20
12.0200
11
9.7720
21
11.8977
0
LINE
8
NFC_COIL
10
9.7720
20
11.8977
11
9.7750
21
11.7750
0
LINE
8
NFC_COIL
10
9.7750
20
11.7750
11
9.7750
21
-11.7750
0
LINE
8
NFC_COIL
10
9.7750
20
-11.7750
11
9.7720
21
-11.8977
0
LINE
8
NFC_COIL
10
9.7720
20
-11.8977
11
9.7630
21
-12.0200
0
LINE
8
NFC_COIL
10
9.7630
20
-12.0200
11
9.7479
21
-12.1418
0
LINE
8
NFC_COIL
10
9.7479
20
-12.1418
11
9.7270
21
-12.2627
0
LINE
8
NFC_COIL
10
9.7270
20
-12.2627
11
9.7001
21
-12.3825
0
LINE
8
NFC_COIL
10
9.7001
20
-12.3825
11
9.6674
21
-12.5007
0
LINE
8
NFC_COIL
10
9.6674
20
-12.5007
11
9.6289
21
-12.6172
0
LINE
8
NFC_COIL
10
9.6289
20
-12.6172
11
9.5847
21
-12.7317
0
LINE
8
NFC_COIL
10
9.5847
20
-12.7317
11
9.5350
21
-12.8439
0
LINE
8
NFC_COIL
10
9.5350
20
-12.8439
11
9.4798
21
-12.9535
0
LINE
8
NFC_COIL
10
9.4798
20
-12.9535
11
9.4193
21
-13.0603
0
LINE
8
NFC_COIL
10
9.4193
20
-13.0603
11
9.3537
21
-13.1639
0
LINE
8
NFC_COIL
10
9.3537
20
-13.1639
11
9.2830
21
-13.2642
0
LINE
8
NFC_COIL
10
9.2830
20
-13.2642
11
9.2075
21
-13.3610
0
LINE
8
NFC_COIL
10
9.2075
20
-13.3610
11
9.1274
21
-13.4539
0
LINE
8
NFC_COIL
10
9.1274
20
-13.4539
11
9.0428
21
-13.5428
0
LINE
8
NFC_COIL
10
9.0428
20
-13.5428
11
8.9539
21
-13.6274
0
LINE
8
NFC_COIL
10
8.9539
20
-13.6274
11
8.8610
21
-13.7075
0
LINE
8
NFC_COIL
10
8.8610
20
-13.7075
11
8.7642
21
-13.7830
0
LINE
8
NFC_COIL
10
8.7642
20
-13.7830
11
8.6639
21
-13.8537
0
LINE
8
NFC_COIL
10
8.6639
20
-13.8537
11
8.5603
21
-13.9193
0
LINE
8
NFC_COIL
10
8.5603
20
-13.9193
11
8.4535
21
-13.9798
0
LINE
8
NFC_COIL
10
8.4535
20
-13.9798
11
8.3439
21
-14.0350
0
LINE
8
NFC_COIL
10
8.3439
20
-14.0350
11
8.2317
21
-14.0847
0
LINE
8
NFC_COIL
10
8.2317
20
-14.0847
11
8.1172
21
-14.1289
0
LINE
8
NFC_COIL
10
8.1172
20
-14.1289
11
8.0007
21
-14.1674
0
LINE
8
NFC_COIL
10
8.0007
20
-14.1674
11
7.8825
21
-14.2001
0
LINE
8
NFC_COIL
10
7.8825
20
-14.2001
11
7.7627
21
-14.2270
0
LINE
8
NFC_COIL
10
7.7627
20
-14.2270
11
7.6418
21
-14.2479
0
LINE
8
NFC_COIL
10
7.6418
20
-14.2479
11
7.5200
21
-14.2630
0
LINE
8
NFC_COIL
10
7.5200
20
-14.2630
11
7.3977
21
-14.2720
0
LINE
8
NFC_COIL
10
7.3977
20
-14.2720
11
7.2750
21
-14.2750
0
LINE
8
NFC_COIL
10
7.2750
20
-14.2750
11
-7.2750
21
-14.2750
0
LINE
8
NFC_COIL
10
-7.2750
20
-14.2750
11
-7.3977
21
-14.2720
0
LINE
8
NFC_COIL
10
-7.3977
20
-14.2720
11
-7.5200
21
-14.2630
0
LINE
8
NFC_COIL
10
-7.5200
20
-14.2630
11
-7.6418
21
-14.2479
0
LINE
8
NFC_COIL
10
-7.6418
20
-14.2479
11
-7.7627
21
-14.2270
0
LINE
8
NFC_COIL
10
-7.7627
20
-14.2270
11
-7.8825
21
-14.2001
0
LINE
8
NFC_COIL
10
-7.8825
20
-14.2001
11
-8.0007
21
-14.1674
0
LINE
8
NFC_COIL
10
-8.0007
20
-14.1674
11
-8.1172
21
-14.1289
0
LINE
8
NFC_COIL
10
-8.1172
20
-14.1289
11
-8.2317
21
-14.0847
0
LINE
8
NFC_COIL
10
-8.2317
20
-14.0847
11
-8.3439
21
-14.0350
0
LINE
8
NFC_COIL
10
-8.3439
20
-14.0350
11
-8.4535
21
-13.9798
0
LINE
8
NFC_COIL
10
-8.4535
20
-13.9798
11
-8.5603
21
-13.9193
0
LINE
8
NFC_COIL
10
-8.5603
20
-13.9193
11
-8.6639
21
-13.8537
0
LINE
8
NFC_COIL
10
-8.6639
20
-13.8537
11
-8.7642
21
-13.7830
0
LINE
8
NFC_COIL
10
-8.7642
20
-13.7830
11
-8.8610
21
-13.7075
0
LINE
8
NFC_COIL
10
-8.8610
20
-13.7075
11
-8.9539
21
-13.6274
0
LINE
8
NFC_COIL
10
-8.9539
20
-13.6274
11
-9.0428
21
-13.5428
0
LINE
8
NFC_COIL
10
-9.0428
20
-13.5428
11
-9.1274
21
-13.4539
0
LINE
8
NFC_COIL
10
-9.1274
20
-13.4539
11
-9.2075
21
-13.3610
0
LINE
8
NFC_COIL
10
-9.2075
20
-13.3610
11
-9.2830
21
-13.2642
0
LINE
8
NFC_COIL
10
-9.2830
20
-13.2642
11
-9.3537
21
-13.1639
0
LINE
8
NFC_COIL
10
-9.3537
20
-13.1639
11
-9.4193
21
-13.0603
0
LINE
8
NFC_COIL
10
-9.4193
20
-13.0603
11
-9.4798
21
-12.9535
0
LINE
8
NFC_COIL
10
-9.4798
20
-12.9535
11
-9.5350
21
-12.8439
0
LINE
8
NFC_COIL
10
-9.5350
20
-12.8439
11
-9.5847
21
-12.7317
0
LINE
8
NFC_COIL
10
-9.5847
20
-12.7317
11
-9.6289
21
-12.6172
0
LINE
8
NFC_COIL
10
-9.6289
20
-12.6172
11
-9.6674
21
-12.5007
0
LINE
8
NFC_COIL
10
-9.6674
20
-12.5007
11
-9.7001
21
-12.3825
0
LINE
8
NFC_COIL
10
-9.7001
20
-12.3825
11
-9.7270
21
-12.2627
0
LINE
8
NFC_COIL
10
-9.7270
20
-12.2627
11
-9.7479
21
-12.1418
0
LINE
8
NFC_COIL
10
-9.7479
20
-12.1418
11
-9.7630
21
-12.0200
0
LINE
8
NFC_COIL
10
-9.7630
20
-12.0200
11
-9.7720
21
-11.8977
0
LINE
8
NFC_COIL
10
-9.7720
20
-11.8977
11
-9.7750
21
-11.7750
0
LINE
8
NFC_COIL
10
-9.7750
20
-11.7750
11
-9.7750
21
10.6750
0
LINE
8
NFC_COIL
10
-9.7750
20
10.6750
11
-9.7720
21
10.7977
0
LINE
8
NFC_COIL
10
-9.7720
20
10.7977
11
-9.7630
21
10.9200
0
LINE
8
NFC_COIL
10
-9.7630
20
10.9200
11
-9.7479
21
11.0418
0
LINE
8
NFC_COIL
10
-9.7479
20
11.0418
11
-9.7270
21
11.1627
0
LINE
8
NFC_COIL
10
-9.7270
20
11.1627
11
-9.7001
21
11.2825
0
LINE
8
NFC_COIL
10
-9.7001
20
11.2825
11
-9.6674
21
11.4007
0
LINE
8
NFC_COIL
10
-9.6674
20
11.4007
11
-9.6289
21
11.5172
0
LINE
8
NFC_COIL
10
-9.6289
20
11.5172
11
-9.5847
21
11.6317
0
LINE
8
NFC_COIL
10
-9.5847
20
11.6317
11
-9.5350
21
11.7439
0
LINE
8
NFC_COIL
10
-9.5350
20
11.7439
11
-9.4798
21
11.8535
0
LINE
8
NFC_COIL
10
-9.4798
20
11.8535
11
-9.4193
21
11.9603
0
LINE
8
NFC_COIL
10
-9.4193
20
11.9603
11
-9.3537
21
12.0639
0
LINE
8
NFC_COIL
10
-9.3537
20
12.0639
11
-9.2830
21
12.1642
0
LINE
8
NFC_COIL
10
-9.2830
20
12.1642
11
-9.2075
21
12.2610
0
LINE
8
NFC_COIL
10
-9.2075
20
12.2610
11
-9.1274
21
12.3539
0
LINE
8
NFC_COIL
10
-9.1274
20
12.3539
11
-9.0428
21
12.4428
0
LINE
8
NFC_COIL
10
-9.0428
20
12.4428
11
-8.9539
21
12.5274
0
LINE
8
NFC_COIL
10
-8.9539
20
12.5274
11
-8.8610
21
12.6075
0
LINE
8
NFC_COIL
10
-8.8610
20
12.6075
11
-8.7642
21
12.6830
0
LINE
8
NFC_COIL
10
-8.7642
20
12.6830
11
-8.6639
21
12.7537
0
LINE
8
NFC_COIL
10
-8.6639
20
12.7537
11
-8.5603
21
12.8193
0
LINE
8
NFC_COIL
10
-8.5603
20
12.8193
11
-8.4535
21
12.8798
0
LINE
8
NFC_COIL
10
-8.4535
20
12.8798
11
-8.3439
21
12.9350
0
LINE
8
NFC_COIL
10
-8.3439
20
12.9350
11
-8.2317
21
12.9847
0
LINE
8
NFC_COIL
10
-8.2317
20
12.9847
11
-8.1172
21
13.0289
0
LINE
8
NFC_COIL
10
-8.1172
20
13.0289
11
-8.0007
21
13.0674
0
LINE
8
NFC_COIL
10
-8.0007
20
13.0674
11
-7.8825
21
13.1001
0
LINE
8
NFC_COIL
10
-7.8825
20
13.1001
11
-7.7627
21
13.1270
0
LINE
8
NFC_COIL
10
-7.7627
20
13.1270
11
-7.6418
21
13.1479
0
LINE
8
NFC_COIL
10
-7.6418
20
13.1479
11
-7.5200
21
13.1630
0
LINE
8
NFC_COIL
10
-7.5200
20
13.1630
11
-7.3977
21
13.1720
0
LINE
8
NFC_COIL
10
-7.3977
20
13.1720
11
-7.2750
21
13.1750
0
LINE
8
NFC_COIL
10
-7.2750
20
13.1750
11
7.2750
21
13.1750
0
LINE
8
NFC_COIL
10
7.2750
20
13.1750
11
7.3437
21
13.1733
0
LINE
8
NFC_COIL
10
7.3437
20
13.1733
11
7.4122
21
13.1683
0
LINE
8
NFC_COIL
10
7.4122
20
13.1683
11
7.4804
21
13.1598
0
LINE
8
NFC_COIL
10
7.4804
20
13.1598
11
7.5481
21
13.1481
0
LINE
8
NFC_COIL
10
7.5481
20
13.1481
11
7.6152
21
13.1330
0
LINE
8
NFC_COIL
10
7.6152
20
13.1330
11
7.6814
21
13.1147
0
LINE
8
NFC_COIL
10
7.6814
20
13.1147
11
7.7466
21
13.0932
0
LINE
8
NFC_COIL
10
7.7466
20
13.0932
11
7.8108
21
13.0684
0
LINE
8
NFC_COIL
10
7.8108
20
13.0684
11
7.8736
21
13.0406
0
LINE
8
NFC_COIL
10
7.8736
20
13.0406
11
7.9350
21
13.0097
0
LINE
8
NFC_COIL
10
7.9350
20
13.0097
11
7.9947
21
12.9758
0
LINE
8
NFC_COIL
10
7.9947
20
12.9758
11
8.0528
21
12.9391
0
LINE
8
NFC_COIL
10
8.0528
20
12.9391
11
8.1090
21
12.8995
0
LINE
8
NFC_COIL
10
8.1090
20
12.8995
11
8.1632
21
12.8572
0
LINE
8
NFC_COIL
10
8.1632
20
12.8572
11
8.2152
21
12.8123
0
LINE
8
NFC_COIL
10
8.2152
20
12.8123
11
8.2649
21
12.7649
0
LINE
8
NFC_COIL
10
8.2649
20
12.7649
11
8.3123
21
12.7152
0
LINE
8
NFC_COIL
10
8.3123
20
12.7152
11
8.3572
21
12.6632
0
LINE
8
NFC_COIL
10
8.3572
20
12.6632
11
8.3995
21
12.6090
0
LINE
8
NFC_COIL
10
8.3995
20
12.6090
11
8.4391
21
12.5528
0
LINE
8
NFC_COIL
10
8.4391
20
12.5528
11
8.4758
21
12.4947
0
LINE
8
NFC_COIL
10
8.4758
20
12.4947
11
8.5097
21
12.4350
0
LINE
8
NFC_COIL
10
8.5097
20
12.4350
11
8.5406
21
12.3736
0
LINE
8
NFC_COIL
10
8.5406
20
12.3736
11
8.5684
21
12.3108
0
LINE
8
NFC_COIL
10
8.5684
20
12.3108
11
8.5932
21
12.2466
0
LINE
8
NFC_COIL
10
8.5932
20
12.2466
11
8.6147
21
12.1814
0
LINE
8
NFC_COIL
10
8.6147
20
12.1814
11
8.6330
21
12.1152
0
LINE
8
NFC_COIL
10
8.6330
20
12.1152
11
8.6481
21
12.0481
0
LINE
8
NFC_COIL
10
8.6481
20
12.0481
11
8.6598
21
11.9804
0
LINE
8
NFC_COIL
10
8.6598
20
11.9804
11
8.6683
21
11.9122
0
LINE
8
NFC_COIL
10
8.6683
20
11.9122
11
8.6733
21
11.8437
0
LINE
8
NFC_COIL
10
8.6733
20
11.8437
11
8.6750
21
11.7750
0
LINE
8
NFC_COIL
10
8.6750
20
11.7750
11
8.6750
21
-11.7750
0
LINE
8
NFC_COIL
10
8.6750
20
-11.7750
11
8.6733
21
-11.8437
0
LINE
8
NFC_COIL
10
8.6733
20
-11.8437
11
8.6683
21
-11.9122
0
LINE
8
NFC_COIL
10
8.6683
20
-11.9122
11
8.6598
21
-11.9804
0
LINE
8
NFC_COIL
10
8.6598
20
-11.9804
11
8.6481
21
-12.0481
0
LINE
8
NFC_COIL
10
8.6481
20
-12.0481
11
8.6330
21
-12.1152
0
LINE
8
NFC_COIL
10
8.6330
20
-12.1152
11
8.6147
21
-12.1814
0
LINE
8
NFC_COIL
10
8.6147
20
-12.1814
11
8.5932
21
-12.2466
0
LINE
8
NFC_COIL
10
8.5932
20
-12.2466
11
8.5684
21
-12.3108
0
LINE
8
NFC_COIL
10
8.5684
20
-12.3108
11
8.5406
21
-12.3736
0
LINE
8
NFC_COIL
10
8.5406
20
-12.3736
11
8.5097
21
-12.4350
0
LINE
8
NFC_COIL
10
8.5097
20
-12.4350
11
8.4758
21
-12.4947
0
LINE
8
NFC_COIL
10
8.4758
20
-12.4947
11
8.4391
21
-12.5528
0
LINE
8
NFC_COIL
10
8.4391
20
-12.5528
11
8.3995
21
-12.6090
0
LINE
8
NFC_COIL
10
8.3995
20
-12.6090
11
8.3572
21
-12.6632
0
LINE
8
NFC_COIL
10
8.3572
20
-12.6632
11
8.3123
21
-12.7152
0
LINE
8
NFC_COIL
10
8.3123
20
-12.7152
11
8.2649
21
-12.7649
0
LINE
8
NFC_COIL
10
8.2649
20
-12.7649
11
8.2152
21
-12.8123
0
LINE
8
NFC_COIL
10
8.2152
20
-12.8123
11
8.1632
21
-12.8572
0
LINE
8
NFC_COIL
10
8.1632
20
-12.8572
11
8.1090
21
-12.8995
0
LINE
8
NFC_COIL
10
8.1090
20
-12.8995
11
8.0528
21
-12.9391
0
LINE
8
NFC_COIL
10
8.0528
20
-12.9391
11
7.9947
21
-12.9758
0
LINE
8
NFC_COIL
10
7.9947
20
-12.9758
11
7.9350
21
-13.0097
0
LINE
8
NFC_COIL
10
7.9350
20
-13.0097
11
7.8736
21
-13.0406
0
LINE
8
NFC_COIL
10
7.8736
20
-13.0406
11
7.8108
21
-13.0684
0
LINE
8
NFC_COIL
10
7.8108
20
-13.0684
11
7.7466
21
-13.0932
0
LINE
8
NFC_COIL
10
7.7466
20
-13.0932
11
7.6814
21
-13.1147
0
LINE
8
NFC_COIL
10
7.6814
20
-13.1147
11
7.6152
21
-13.1330
0
LINE
8
NFC_COIL
10
7.6152
20
-13.1330
11
7.5481
21
-13.1481
0
LINE
8
NFC_COIL
10
7.5481
20
-13.1481
11
7.4804
21
-13.1598
0
LINE
8
NFC_COIL
10
7.4804
20
-13.1598
11
7.4122
21
-13.1683
0
LINE
8
NFC_COIL
10
7.4122
20
-13.1683
11
7.3437
21
-13.1733
0
LINE
8
NFC_COIL
10
7.3437
20
-13.1733
11
7.2750
21
-13.1750
0
LINE
8
NFC_COIL
10
7.2750
20
-13.1750
11
-7.2750
21
-13.1750
0
LINE
8
NFC_COIL
10
-7.2750
20
-13.1750
11
-7.3437
21
-13.1733
0
LINE
8
NFC_COIL
10
-7.3437
20
-13.1733
11
-7.4122
21
-13.1683
0
LINE
8
NFC_COIL
10
-7.4122
20
-13.1683
11
-7.4804
21
-13.1598
0
LINE
8
NFC_COIL
10
-7.4804
20
-13.1598
11
-7.5481
21
-13.1481
0
LINE
8
NFC_COIL
10
-7.5481
20
-13.1481
11
-7.6152
21
-13.1330
0
LINE
8
NFC_COIL
10
-7.6152
20
-13.1330
11
-7.6814
21
-13.1147
0
LINE
8
NFC_COIL
10
-7.6814
20
-13.1147
11
-7.7466
21
-13.0932
0
LINE
8
NFC_COIL
10
-7.7466
20
-13.0932
11
-7.8108
21
-13.0684
0
LINE
8
NFC_COIL
10
-7.8108
20
-13.0684
11
-7.8736
21
-13.0406
0
LINE
8
NFC_COIL
10
-7.8736
20
-13.0406
11
-7.9350
21
-13.0097
0
LINE
8
NFC_COIL
10
-7.9350
20
-13.0097
11
-7.9947
21
-12.9758
0
LINE
8
NFC_COIL
10
-7.9947
20
-12.9758
11
-8.0528
21
-12.9391
0
LINE
8
NFC_COIL
10
-8.0528
20
-12.9391
11
-8.1090
21
-12.8995
0
LINE
8
NFC_COIL
10
-8.1090
20
-12.8995
11
-8.1632
21
-12.8572
0
LINE
8
NFC_COIL
10
-8.1632
20
-12.8572
11
-8.2152
21
-12.8123
0
LINE
8
NFC_COIL
10
-8.2152
20
-12.8123
11
-8.2649
21
-12.7649
0
LINE
8
NFC_COIL
10
-8.2649
20
-12.7649
11
-8.3123
21
-12.7152
0
LINE
8
NFC_COIL
10
-8.3123
20
-12.7152
11
-8.3572
21
-12.6632
0
LINE
8
NFC_COIL
10
-8.3572
20
-12.6632
11
-8.3995
21
-12.6090
0
LINE
8
NFC_COIL
10
-8.3995
20
-12.6090
11
-8.4391
21
-12.5528
0
LINE
8
NFC_COIL
10
-8.4391
20
-12.5528
11
-8.4758
21
-12.4947
0
LINE
8
NFC_COIL
10
-8.4758
20
-12.4947
11
-8.5097
21
-12.4350
0
LINE
8
NFC_COIL
10
-8.5097
20
-12.4350
11
-8.5406
21
-12.3736
0
LINE
8
NFC_COIL
10
-8.5406
20
-12.3736
11
-8.5684
21
-12.3108
0
LINE
8
NFC_COIL
10
-8.5684
20
-12.3108
11
-8.5932
21
-12.2466
0
LINE
8
NFC_COIL
10
-8.5932
20
-12.2466
11
-8.6147
21
-12.1814
0
LINE
8
NFC_COIL
10
-8.6147
20
-12.1814
11
-8.6330
21
-12.1152
0
LINE
8
NFC_COIL
10
-8.6330
20
-12.1152
11
-8.6481
21
-12.0481
0
LINE
8
NFC_COIL
10
-8.6481
20
-12.0481
11
-8.6598
21
-11.9804
0
LINE
8
NFC_COIL
10
-8.6598
20
-11.9804
11
-8.6683
21
-11.9122
0
LINE
8
NFC_COIL
10
-8.6683
20
-11.9122
11
-8.6733
21
-11.8437
0
LINE
8
NFC_COIL
10
-8.6733
20
-11.8437
11
-8.6750
21
-11.7750
0
LINE
8
NFC_COIL
10
-8.6750
20
-11.7750
11
-8.6750
21
10.6750
0
LINE
8
NFC_COIL
10
-8.6750
20
10.6750
11
-8.6733
21
10.7437
0
LINE
8
NFC_COIL
10
-8.6733
20
10.7437
11
-8.6683
21
10.8122
0
LINE
8
NFC_COIL
10
-8.6683
20
10.8122
11
-8.6598
21
10.8804
0
LINE
8
NFC_COIL
10
-8.6598
20
10.8804
11
-8.6481
21
10.9481
0
LINE
8
NFC_COIL
10
-8.6481
20
10.9481
11
-8.6330
21
11.0152
0
LINE
8
NFC_COIL
10
-8.6330
20
11.0152
11
-8.6147
21
11.0814
0
LINE
8
NFC_COIL
10
-8.6147
20
11.0814
11
-8.5932
21
11.1466
0
LINE
8
NFC_COIL
10
-8.5932
20
11.1466
11
-8.5684
21
11.2108
0
LINE
8
NFC_COIL
10
-8.5684
20
11.2108
11
-8.5406
21
11.2736
0
LINE
8
NFC_COIL
10
-8.5406
20
11.2736
11
-8.5097
21
11.3350
0
LINE
8
NFC_COIL
10
-8.5097
20
11.3350
11
-8.4758
21
11.3947
0
LINE
8
NFC_COIL
10
-8.4758
20
11.3947
11
-8.4391
21
11.4528
0
LINE
8
NFC_COIL
10
-8.4391
20
11.4528
11
-8.3995
21
11.5090
0
LINE
8
NFC_COIL
10
-8.3995
20
11.5090
11
-8.3572
21
11.5632
0
LINE
8
NFC_COIL
10
-8.3572
20
11.5632
11
-8.3123
21
11.6152
0
LINE
8
NFC_COIL
10
-8.3123
20
11.6152
11
-8.2649
21
11.6649
0
LINE
8
NFC_COIL
10
-8.2649
20
11.6649
11
-8.2152
21
11.7123
0
LINE
8
NFC_COIL
10
-8.2152
20
11.7123
11
-8.1632
21
11.7572
0
LINE
8
NFC_COIL
10
-8.1632
20
11.7572
11
-8.1090
21
11.7995
0
LINE
8
NFC_COIL
10
-8.1090
20
11.7995
11
-8.0528
21
11.8391
0
LINE
8
NFC_COIL
10
-8.0528
20
11.8391
11
-7.9947
21
11.8758
0
LINE
8
NFC_COIL
10
-7.9947
20
11.8758
11
-7.9350
21
11.9097
0
LINE
8
NFC_COIL
10
-7.9350
20
11.9097
11
-7.8736
21
11.9406
0
LINE
8
NFC_COIL
10
-7.8736
20
11.9406
11
-7.8108
21
11.9684
0
LINE
8
NFC_COIL
10
-7.8108
20
11.9684
11
-7.7466
21
11.9932
0
LINE
8
NFC_COIL
10
-7.7466
20
11.9932
11
-7.6814
21
12.0147
0
LINE
8
NFC_COIL
10
-7.6814
20
12.0147
11
-7.6152
21
12.0330
0
LINE
8
NFC_COIL
10
-7.6152
20
12.0330
11
-7.5481
21
12.0481
0
LINE
8
NFC_COIL
10
-7.5481
20
12.0481
11
-7.4804
21
12.0598
0
LINE
8
NFC_COIL
10
-7.4804
20
12.0598
11
-7.4122
21
12.0683
0
LINE
8
NFC_COIL
10
-7.4122
20
12.0683
11
-7.3437
21
12.0733
0
LINE
8
NFC_COIL
10
-7.3437
20
12.0733
11
-7.2750
21
12.0750
0
LINE
8
NFC_COIL
10
-7.2750
20
12.0750
11
7.2750
21
12.0750
0
LINE
8
NFC_COIL
10
7.2750
20
12.0750
11
7.2897
21
12.0746
0
LINE
8
NFC_COIL
10
7.2897
20
12.0746
11
7.3044
21
12.0736
0
LINE
8
NFC_COIL
10
7.3044
20
12.0736
11
7.3190
21
12.0718
0
LINE
8
NFC_COIL
10
7.3190
20
12.0718
11
7.3335
21
12.0692
0
LINE
8
NFC_COIL
10
7.3335
20
12.0692
11
7.3479
21
12.0660
0
LINE
8
NFC_COIL
10
7.3479
20
12.0660
11
7.3621
21
12.0621
0
LINE
8
NFC_COIL
10
7.3621
20
12.0621
11
7.3761
21
12.0575
0
LINE
8
NFC_COIL
10
7.3761
20
12.0575
11
7.3898
21
12.0522
0
LINE
8
NFC_COIL
10
7.3898
20
12.0522
11
7.4033
21
12.0462
0
LINE
8
NFC_COIL
10
7.4033
20
12.0462
11
7.4164
21
12.0396
0
LINE
8
NFC_COIL
10
7.4164
20
12.0396
11
7.4292
21
12.0323
0
LINE
8
NFC_COIL
10
7.4292
20
12.0323
11
7.4417
21
12.0244
0
LINE
8
NFC_COIL
10
7.4417
20
12.0244
11
7.4537
21
12.0160
0
LINE
8
NFC_COIL
10
7.4537
20
12.0160
11
7.4653
21
12.0069
0
LINE
8
NFC_COIL
10
7.4653
20
12.0069
11
7.4765
21
11.9973
0
LINE
8
NFC_COIL
10
7.4765
20
11.9973
11
7.4871
21
11.9871
0
LINE
8
NFC_COIL
10
7.4871
20
11.9871
11
7.4973
21
11.9765
0
LINE
8
NFC_COIL
10
7.4973
20
11.9765
11
7.5069
21
11.9653
0
LINE
8
NFC_COIL
10
7.5069
20
11.9653
11
7.5160
21
11.9537
0
LINE
8
NFC_COIL
10
7.5160
20
11.9537
11
7.5244
21
11.9417
0
LINE
8
NFC_COIL
10
7.5244
20
11.9417
11
7.5323
21
11.9292
0
LINE
8
NFC_COIL
10
7.5323
20
11.9292
11
7.5396
21
11.9164
0
LINE
8
NFC_COIL
10
7.5396
20
11.9164
11
7.5462
21
11.9033
0
LINE
8
NFC_COIL
10
7.5462
20
11.9033
11
7.5522
21
11.8898
0
LINE
8
NFC_COIL
10
7.5522
20
11.8898
11
7.5575
21
11.8761
0
LINE
8
NFC_COIL
10
7.5575
20
11.8761
11
7.5621
21
11.8621
0
LINE
8
NFC_COIL
10
7.5621
20
11.8621
11
7.5660
21
11.8479
0
LINE
8
NFC_COIL
10
7.5660
20
11.8479
11
7.5692
21
11.8335
0
LINE
8
NFC_COIL
10
7.5692
20
11.8335
11
7.5718
21
11.8190
0
LINE
8
NFC_COIL
10
7.5718
20
11.8190
11
7.5736
21
11.8044
0
LINE
8
NFC_COIL
10
7.5736
20
11.8044
11
7.5746
21
11.7897
0
LINE
8
NFC_COIL
10
7.5746
20
11.7897
11
7.5750
21
11.7750
0
LINE
8
NFC_COIL
10
7.5750
20
11.7750
11
7.5750
21
-11.7750
0
LINE
8
NFC_COIL
10
7.5750
20
-11.7750
11
7.5746
21
-11.7897
0
LINE
8
NFC_COIL
10
7.5746
20
-11.7897
11
7.5736
21
-11.8044
0
LINE
8
NFC_COIL
10
7.5736
20
-11.8044
11
7.5718
21
-11.8190
0
LINE
8
NFC_COIL
10
7.5718
20
-11.8190
11
7.5692
21
-11.8335
0
LINE
8
NFC_COIL
10
7.5692
20
-11.8335
11
7.5660
21
-11.8479
0
LINE
8
NFC_COIL
10
7.5660
20
-11.8479
11
7.5621
21
-11.8621
0
LINE
8
NFC_COIL
10
7.5621
20
-11.8621
11
7.5575
21
-11.8761
0
LINE
8
NFC_COIL
10
7.5575
20
-11.8761
11
7.5522
21
-11.8898
0
LINE
8
NFC_COIL
10
7.5522
20
-11.8898
11
7.5462
21
-11.9033
0
LINE
8
NFC_COIL
10
7.5462
20
-11.9033
11
7.5396
21
-11.9164
0
LINE
8
NFC_COIL
10
7.5396
20
-11.9164
11
7.5323
21
-11.9292
0
LINE
8
NFC_COIL
10
7.5323
20
-11.9292
11
7.5244
21
-11.9417
0
LINE
8
NFC_COIL
10
7.5244
20
-11.9417
11
7.5160
21
-11.9537
0
LINE
8
NFC_COIL
10
7.5160
20
-11.9537
11
7.5069
21
-11.9653
0
LINE
8
NFC_COIL
10
7.5069
20
-11.9653
11
7.4973
21
-11.9765
0
LINE
8
NFC_COIL
10
7.4973
20
-11.9765
11
7.4871
21
-11.9871
0
LINE
8
NFC_COIL
10
7.4871
20
-11.9871
11
7.4765
21
-11.9973
0
LINE
8
NFC_COIL
10
7.4765
20
-11.9973
11
7.4653
21
-12.0069
0
LINE
8
NFC_COIL
10
7.4653
20
-12.0069
11
7.4537
21
-12.0160
0
LINE
8
NFC_COIL
10
7.4537
20
-12.0160
11
7.4417
21
-12.0244
0
LINE
8
NFC_COIL
10
7.4417
20
-12.0244
11
7.4292
21
-12.0323
0
LINE
8
NFC_COIL
10
7.4292
20
-12.0323
11
7.4164
21
-12.0396
0
LINE
8
NFC_COIL
10
7.4164
20
-12.0396
11
7.4033
21
-12.0462
0
LINE
8
NFC_COIL
10
7.4033
20
-12.0462
11
7.3898
21
-12.0522
0
LINE
8
NFC_COIL
10
7.3898
20
-12.0522
11
7.3761
21
-12.0575
0
LINE
8
NFC_COIL
10
7.3761
20
-12.0575
11
7.3621
21
-12.0621
0
LINE
8
NFC_COIL
10
7.3621
20
-12.0621
11
7.3479
21
-12.0660
0
LINE
8
NFC_COIL
10
7.3479
20
-12.0660
11
7.3335
21
-12.0692
0
LINE
8
NFC_COIL
10
7.3335
20
-12.0692
11
7.3190
21
-12.0718
0
LINE
8
NFC_COIL
10
7.3190
20
-12.0718
11
7.3044
21
-12.0736
0
LINE
8
NFC_COIL
10
7.3044
20
-12.0736
11
7.2897
21
-12.0746
0
LINE
8
NFC_COIL
10
7.2897
20
-12.0746
11
7.2750
21
-12.0750
0
LINE
8
NFC_COIL
10
7.2750
20
-12.0750
11
-7.2750
21
-12.0750
0
LINE
8
NFC_COIL
10
-7.2750
20
-12.0750
11
-7.2897
21
-12.0746
0
LINE
8
NFC_COIL
10
-7.2897
20
-12.0746
11
-7.3044
21
-12.0736
0
LINE
8
NFC_COIL
10
-7.3044
20
-12.0736
11
-7.3190
21
-12.0718
0
LINE
8
NFC_COIL
10
-7.3190
20
-12.0718
11
-7.3335
21
-12.0692
0
LINE
8
NFC_COIL
10
-7.3335
20
-12.0692
11
-7.3479
21
-12.0660
0
LINE
8
NFC_COIL
10
-7.3479
20
-12.0660
11
-7.3621
21
-12.0621
0
LINE
8
NFC_COIL
10
-7.3621
20
-12.0621
11
-7.3761
21
-12.0575
0
LINE
8
NFC_COIL
10
-7.3761
20
-12.0575
11
-7.3898
21
-12.0522
0
LINE
8
NFC_COIL
10
-7.3898
20
-12.0522
11
-7.4033
21
-12.0462
0
LINE
8
NFC_COIL
10
-7.4033
20
-12.0462
11
-7.4164
21
-12.0396
0
LINE
8
NFC_COIL
10
-7.4164
20
-12.0396
11
-7.4292
21
-12.0323
0
LINE
8
NFC_COIL
10
-7.4292
20
-12.0323
11
-7.4417
21
-12.0244
0
LINE
8
NFC_COIL
10
-7.4417
20
-12.0244
11
-7.4537
21
-12.0160
0
LINE
8
NFC_COIL
10
-7.4537
20
-12.0160
11
-7.4653
21
-12.0069
0
LINE
8
NFC_COIL
10
-7.4653
20
-12.0069
11
-7.4765
21
-11.9973
0
LINE
8
NFC_COIL
10
-7.4765
20
-11.9973
11
-7.4871
21
-11.9871
0
LINE
8
NFC_COIL
10
-7.4871
20
-11.9871
11
-7.4973
21
-11.9765
0
LINE
8
NFC_COIL
10
-7.4973
20
-11.9765
11
-7.5069
21
-11.9653
0
LINE
8
NFC_COIL
10
-7.5069
20
-11.9653
11
-7.5160
21
-11.9537
0
LINE
8
NFC_COIL
10
-7.5160
20
-11.9537
11
-7.5244
21
-11.9417
0
LINE
8
NFC_COIL
10
-7.5244
20
-11.9417
11
-7.5323
21
-11.9292
0
LINE
8
NFC_COIL
10
-7.5323
20
-11.9292
11
-7.5396
21
-11.9164
0
LINE
8
NFC_COIL
10
-7.5396
20
-11.9164
11
-7.5462
21
-11.9033
0
LINE
8
NFC_COIL
10
-7.5462
20
-11.9033
11
-7.5522
21
-11.8898
0
LINE
8
NFC_COIL
10
-7.5522
20
-11.8898
11
-7.5575
21
-11.8761
0
LINE
8
NFC_COIL
10
-7.5575
20
-11.8761
11
-7.5621
21
-11.8621
0
LINE
8
NFC_COIL
10
-7.5621
20
-11.8621
11
-7.5660
21
-11.8479
0
LINE
8
NFC_COIL
10
-7.5660
20
-11.8479
11
-7.5692
21
-11.8335
0
LINE
8
NFC_COIL
10
-7.5692
20
-11.8335
11
-7.5718
21
-11.8190
0
LINE
8
NFC_COIL
10
-7.5718
20
-11.8190
11
-7.5736
21
-11.8044
0
LINE
8
NFC_COIL
10
-7.5736
20
-11.8044
11
-7.5746
21
-11.7897
0
LINE
8
NFC_COIL
10
-7.5746
20
-11.7897
11
-7.5750
21
-11.7750
0
LINE
8
NFC_COIL
10
-7.5750
20
-11.7750
11
-7.5750
21
11.7750
0
ENDSEC
0
EOF
